<?xml version="1.0" encoding="UTF-8" standalone="no"?>
<!-- Created with Inkscape (http://www.inkscape.org/) -->

<svg
   xmlns:dc="http://purl.org/dc/elements/1.1/"
   xmlns:cc="http://creativecommons.org/ns#"
   xmlns:rdf="http://www.w3.org/1999/02/22-rdf-syntax-ns#"
   xmlns:svg="http://www.w3.org/2000/svg"
   xmlns="http://www.w3.org/2000/svg"
   xmlns:sodipodi="http://sodipodi.sourceforge.net/DTD/sodipodi-0.dtd"
   xmlns:inkscape="http://www.inkscape.org/namespaces/inkscape"
   id="svg10017"
   version="1.1"
   inkscape:version="0.48.4 r9939"
   width="915.49982"
   height="704.30438"
   xml:space="preserve"
   sodipodi:docname="measurements.svg"><metadata
     id="metadata10023"><rdf:RDF><cc:Work
         rdf:about=""><dc:format>image/svg+xml</dc:format><dc:type
           rdf:resource="http://purl.org/dc/dcmitype/StillImage" /><dc:title></dc:title></cc:Work></rdf:RDF></metadata><defs
     id="defs10021"><clipPath
       clipPathUnits="userSpaceOnUse"
       id="clipPath10033"><path
         d="M 0,0 612,0 612,792 0,792 0,0 z"
         id="path10035"
         inkscape:connector-curvature="0" /></clipPath></defs><sodipodi:namedview
     pagecolor="#ffffff"
     bordercolor="#666666"
     borderopacity="1"
     objecttolerance="10"
     gridtolerance="10"
     guidetolerance="10"
     inkscape:pageopacity="0"
     inkscape:pageshadow="2"
     inkscape:window-width="1652"
     inkscape:window-height="1022"
     id="namedview10019"
     showgrid="false"
     fit-margin-top="10"
     fit-margin-left="10"
     fit-margin-right="10"
     fit-margin-bottom="10"
     borderlayer="true"
     inkscape:zoom="0.90557652"
     inkscape:cx="711.23116"
     inkscape:cy="242.44431"
     inkscape:window-x="10"
     inkscape:window-y="10"
     inkscape:window-maximized="0"
     inkscape:current-layer="g10031" /><g
     id="g10025"
     inkscape:groupmode="layer"
     inkscape:label="fevan"
     transform="matrix(1.25,0,0,-1.25,241.09848,1166.3092)"><g
       id="g10027" /><g
       id="g10029"
       transform="matrix(3,0,0,3,-346.69674,-1289.5679)"><g
         id="g10031"
         clip-path="url(#clipPath10033)"><g
           id="g10037"
           transform="matrix(1.00028,0,0,1.00028,72,720)"><path
             d="m -11.71,18 226.06,0"
             style="fill:none;stroke:#000000;stroke-width:0.40000001;stroke-linecap:butt;stroke-linejoin:miter;stroke-miterlimit:10;stroke-opacity:1;stroke-dasharray:none"
             id="path10039"
             inkscape:connector-curvature="0" /></g><g
           id="g10041"
           transform="matrix(1.00028,0,0,1.00028,72,720)"><path
             d="m -11.71,8.83 0,8.97"
             style="fill:none;stroke:#000000;stroke-width:0.40000001;stroke-linecap:butt;stroke-linejoin:miter;stroke-miterlimit:10;stroke-opacity:1;stroke-dasharray:none"
             id="path10043"
             inkscape:connector-curvature="0" /></g><g
           id="g10045"
           transform="matrix(1.00028,0,0,1.00028,72,720)"><text
             transform="matrix(1,0,0,-1,-6.33,11.52)"
             id="text10047"><tspan
               style="font-size:7.96999979px;font-variant:normal;font-weight:normal;writing-mode:lr-tb;fill:#000000;fill-opacity:1;fill-rule:nonzero;stroke:none;font-family:Times New Roman;-inkscape-font-specification:Times-Roman"
               x="0 4.8776398 8.4163198 11.07033 13.28599 16.824671 20.809669 23.02533"
               y="0"
               sodipodi:role="line"
               id="tspan10049">Variable</tspan></text>
</g><g
           id="g10051"
           transform="matrix(1.00028,0,0,1.00028,72,720)"><path
             d="m 90.45,8.83 0,8.97"
             style="fill:none;stroke:#000000;stroke-width:0.40000001;stroke-linecap:butt;stroke-linejoin:miter;stroke-miterlimit:10;stroke-opacity:1;stroke-dasharray:none"
             id="path10053"
             inkscape:connector-curvature="0" /></g><g
           id="g10055"
           transform="matrix(1.00028,0,0,1.00028,72,720)"><text
             transform="matrix(1,0,0,-1,95.83,11.52)"
             id="text10057"><tspan
               style="font-size:7.96999979px;font-variant:normal;font-weight:normal;writing-mode:lr-tb;fill:#000000;fill-opacity:1;fill-rule:nonzero;stroke:none;font-family:Times New Roman;-inkscape-font-specification:Times-Roman"
               x="0 5.7543402 9.7393398 15.94 19.47868 21.69434"
               y="0"
               sodipodi:role="line"
               id="tspan10059">Domain</tspan></text>
</g><g
           id="g10061"
           transform="matrix(1.00028,0,0,1.00028,72,720)"><path
             d="m 214.35,8.83 0,8.97"
             style="fill:none;stroke:#000000;stroke-width:0.40000001;stroke-linecap:butt;stroke-linejoin:miter;stroke-miterlimit:10;stroke-opacity:1;stroke-dasharray:none"
             id="path10063"
             inkscape:connector-curvature="0" /></g><g
           id="g10065"
           transform="matrix(1.00028,0,0,1.00028,72,720)"><path
             d="m -11.71,8.64 226.06,0"
             style="fill:none;stroke:#000000;stroke-width:0.40000001;stroke-linecap:butt;stroke-linejoin:miter;stroke-miterlimit:10;stroke-opacity:1;stroke-dasharray:none"
             id="path10067"
             inkscape:connector-curvature="0" /></g><g
           id="g10069"
           transform="matrix(1.00028,0,0,1.00028,72,720)"><path
             d="m -11.71,-0.53 0,8.97"
             style="fill:none;stroke:#000000;stroke-width:0.40000001;stroke-linecap:butt;stroke-linejoin:miter;stroke-miterlimit:10;stroke-opacity:1;stroke-dasharray:none"
             id="path10071"
             inkscape:connector-curvature="0" /></g><g
           id="g10073"
           transform="matrix(1.00028,0,0,1.00028,72,720)"><text
             transform="matrix(1,0,0,-1,-6.33,2.16)"
             id="text10075"><tspan
               style="font-size:7.96999979px;font-variant:normal;font-weight:normal;writing-mode:lr-tb;fill:#000000;fill-opacity:1;fill-rule:nonzero;stroke:none;font-family:Times New Roman;-inkscape-font-specification:Times-Roman"
               x="0 2.6540101 6.63901 10.62401 14.16269 18.14769 21.686371 25.67137 29.65637 33.195049 37.18005 41.38821 45.181931 48.720612 51.374619 53.590279 57.12896 61.11396 63.32962 66.868301"
               y="0"
               sodipodi:role="line"
               id="tspan10077">Independentvariables</tspan></text>
</g><g
           id="g10079"
           transform="matrix(1.00028,0,0,1.00028,72,720)"><path
             d="m 90.45,-0.53 0,8.97"
             style="fill:none;stroke:#000000;stroke-width:0.40000001;stroke-linecap:butt;stroke-linejoin:miter;stroke-miterlimit:10;stroke-opacity:1;stroke-dasharray:none"
             id="path10081"
             inkscape:connector-curvature="0" /></g><g
           id="g10083"
           transform="matrix(1.00028,0,0,1.00028,72,720)"><path
             d="m 214.35,-0.53 0,8.97"
             style="fill:none;stroke:#000000;stroke-width:0.40000001;stroke-linecap:butt;stroke-linejoin:miter;stroke-miterlimit:10;stroke-opacity:1;stroke-dasharray:none"
             id="path10085"
             inkscape:connector-curvature="0" /></g><g
           id="g10087"
           transform="matrix(1.00028,0,0,1.00028,72,720)"><path
             d="m -11.71,-9.49 0,8.96"
             style="fill:none;stroke:#000000;stroke-width:0.40000001;stroke-linecap:butt;stroke-linejoin:miter;stroke-miterlimit:10;stroke-opacity:1;stroke-dasharray:none"
             id="path10089"
             inkscape:connector-curvature="0" /></g><g
           id="g10091"
           transform="matrix(1.00028,0,0,1.00028,72,720)"><text
             transform="matrix(1,0,0,-1,-2.34,-6.8)"
             id="text10093"><tspan
               style="font-size:7.96999979px;font-variant:normal;font-weight:normal;writing-mode:lr-tb;fill:#000000;fill-opacity:1;fill-rule:nonzero;stroke:none;font-family:Times New Roman;-inkscape-font-specification:Times-Roman"
               x="0 5.7543402 9.7393398 13.72434 17.709339 19.924999 23.46368 25.67934 27.895 31.879999 37.849529 41.38821 44.488541 47.588871 49.804531 52.904861 55.120522 58.659199 62.644199"
               y="0"
               sodipodi:role="line"
               id="tspan10095">Annotationassistant</tspan></text>
</g><g
           id="g10097"
           transform="matrix(1.00028,0,0,1.00028,72,720)"><path
             d="m 90.45,-9.49 0,8.96"
             style="fill:none;stroke:#000000;stroke-width:0.40000001;stroke-linecap:butt;stroke-linejoin:miter;stroke-miterlimit:10;stroke-opacity:1;stroke-dasharray:none"
             id="path10099"
             inkscape:connector-curvature="0" /></g><g
           id="g10101"
           transform="matrix(1.00028,0,0,1.00028,72,720)"><text
             transform="matrix(1,0,0,-1,95.83,-6.8)"
             id="text10103"><tspan
               style="font-size:7.96999979px;font-variant:normal;font-weight:normal;writing-mode:lr-tb;fill:#000000;fill-opacity:1;fill-rule:nonzero;stroke:none;font-family:Times New Roman;-inkscape-font-specification:Times-Roman"
               x="0 3.9849999 7.9699998 11.955 15.49368 19.470711 25.22505 29.210051 33.195049 37.18005 39.39571 43.380711 45.596371 49.581371 55.335709 58.87439 61.09005 65.003319 68.988319"
               y="0"
               sodipodi:role="line"
               id="tspan10105">none,Houdini,Daikon</tspan></text>
</g><g
           id="g10107"
           transform="matrix(1.00028,0,0,1.00028,72,720)"><text
             transform="matrix(1,0,0,-1,168.78,-8.13)"
             id="text10109"><tspan
               style="font-size:5.98000002px;font-variant:normal;font-weight:normal;writing-mode:lr-tb;fill:#000000;fill-opacity:1;fill-rule:nonzero;stroke:none;font-family:Times New Roman;-inkscape-font-specification:Times-Roman"
               x="0 3.2172401 4.7122402 8.0371199 9.5321198"
               y="0"
               sodipodi:role="line"
               id="tspan10111">T,S,G</tspan></text>
</g><g
           id="g10113"
           transform="matrix(1.00028,0,0,1.00028,72,720)"><path
             d="m 214.35,-9.49 0,8.96"
             style="fill:none;stroke:#000000;stroke-width:0.40000001;stroke-linecap:butt;stroke-linejoin:miter;stroke-miterlimit:10;stroke-opacity:1;stroke-dasharray:none"
             id="path10115"
             inkscape:connector-curvature="0" /></g><g
           id="g10117"
           transform="matrix(1.00028,0,0,1.00028,72,720)"><path
             d="m -11.71,-18.46 0,8.97"
             style="fill:none;stroke:#000000;stroke-width:0.40000001;stroke-linecap:butt;stroke-linejoin:miter;stroke-miterlimit:10;stroke-opacity:1;stroke-dasharray:none"
             id="path10119"
             inkscape:connector-curvature="0" /></g><g
           id="g10121"
           transform="matrix(1.00028,0,0,1.00028,72,720)"><text
             transform="matrix(1,0,0,-1,-2.34,-15.77)"
             id="text10123"><tspan
               style="font-size:7.96999979px;font-variant:normal;font-weight:normal;writing-mode:lr-tb;fill:#000000;fill-opacity:1;fill-rule:nonzero;stroke:none;font-family:Times New Roman;-inkscape-font-specification:Times-Roman"
               x="0 4.4313202 7.08533 11.07033 15.05533 17.709339 21.24802"
               y="0"
               sodipodi:role="line"
               id="tspan10125">Program</tspan></text>
</g><g
           id="g10127"
           transform="matrix(1.00028,0,0,1.00028,72,720)"><path
             d="m 90.45,-18.46 0,8.97"
             style="fill:none;stroke:#000000;stroke-width:0.40000001;stroke-linecap:butt;stroke-linejoin:miter;stroke-miterlimit:10;stroke-opacity:1;stroke-dasharray:none"
             id="path10129"
             inkscape:connector-curvature="0" /></g><g
           id="g10131"
           transform="matrix(1.00028,0,0,1.00028,72,720)"><g
             transform="matrix(1,0,0,-1,95.83,-15.77)"
             id="text10133"
             style=""><path
               d="m 0.61098143,-0.12842285 0,-0.73940428 c 0.62265497,0.29576229 1.18823387,0.443643 1.69673827,0.44364257 0.2127383,4.3e-7 0.4163986,-0.0402128 0.6109814,-0.12063964 0.194577,-0.0830202 0.3411605,-0.20106533 0.439751,-0.35413574 C 3.4596302,-1.0520285 3.510221,-1.21807 3.5102245,-1.3970849 3.510221,-1.6072298 3.4414694,-1.8031069 3.3039696,-1.9847167 3.1664632,-2.168917 2.9083206,-2.3712801 2.5295409,-2.5918066 L 2.1325976,-2.8214111 1.7317626,-3.0510155 c -0.705678,-0.4176951 -1.05851622,-0.9365748 -1.05851555,-1.5566406 -6.7e-7,-0.4540151 0.15696043,-0.8353917 0.47088375,-1.1441309 0.3165155,-0.311322 0.8094512,-0.4669859 1.4788086,-0.4669921 0.4306675,6.2e-6 0.8470684,0.062272 1.2492041,0.1867968 l 0,0.6732471 c -0.443646,-0.1712249 -0.8756134,-0.2568401 -1.2959033,-0.2568457 -0.33468,5.6e-6 -0.6057946,0.088215 -0.8133447,0.2646289 -0.2049593,0.1764244 -0.307438,0.3891651 -0.3074366,0.6382226 -1.4e-6,0.2464726 0.079128,0.4514301 0.2373877,0.6148731 0.1582566,0.1634512 0.3606197,0.3139263 0.6070899,0.4514257 l 0.3035449,0.1829053 0.3774853,0.2296045 0.3191113,0.1867969 c 0.6615683,0.4047292 0.9923541,0.9132312 0.9923584,1.5255077 -4.3e-6,0.4669933 -0.1699374,0.86782781 -0.5097998,1.20250488 C 3.4427666,0.01556639 2.897943,0.18290509 2.148164,0.18290527 1.9094772,0.18290509 1.6811701,0.1621499 1.4632421,0.12063965 1.2479056,0.08172355 0.963819,-0.0012972 0.61098143,-0.12842285"
               style="font-size:7.96999979px;font-variant:normal;font-weight:normal;writing-mode:lr-tb;fill:#000000;fill-opacity:1;fill-rule:nonzero;stroke:none;font-family:Courier;-inkscape-font-specification:Courier"
               id="path11531" /><path
               d="M 9.0199541,-0.17512207 C 8.6800836,-0.03242998 8.4336158,0.05188797 8.2805498,0.07783203 8.1274768,0.10637033 7.9795961,0.12063952 7.8369072,0.12063965 7.5333595,0.12063952 7.2557589,0.06226556 7.0041045,-0.05448242 6.7524456,-0.17123029 6.5617574,-0.34375779 6.4320391,-0.57206541 6.3049119,-0.8003719 6.2413492,-1.1532101 6.2413506,-1.630581 l 0,-1.7512207 -1.0857568,0 0,-0.6031982 1.0857568,0 0,-1.7512207 0.7238379,0 0,1.7512207 1.9341259,0 0,0.6031982 -1.9341259,0 0,1.7395459 c -2.2e-6,0.3502454 0.041508,0.5980105 0.1245312,0.74329586 0.083019,0.14269281 0.1932804,0.24776595 0.3307862,0.31521972 0.1400948,0.0674549 0.3048391,0.10118212 0.4942333,0.10118164 0.3502407,4.8e-7 0.7186453,-0.11026145 1.1052149,-0.33078613 l 0,0.63822264"
               style="font-size:7.96999979px;font-variant:normal;font-weight:normal;writing-mode:lr-tb;fill:#000000;fill-opacity:1;fill-rule:nonzero;stroke:none;font-family:Courier;-inkscape-font-specification:Courier"
               id="path11533" /><path
               d="m 13.023634,-0.97679197 c -0.220527,0.36321675 -0.486453,0.63692578 -0.797778,0.82112791 -0.308737,0.18420244 -0.592823,0.27630358 -0.852261,0.27630371 -0.363218,-1.3e-7 -0.690112,-0.15696123 -0.980684,-0.47088378 -0.287979,-0.31392186 -0.4319679,-0.78999397 -0.4319675,-1.42821777 -4e-7,-0.5033115 0.095992,-0.9521424 0.2879785,-1.3464941 0.191985,-0.3969398 0.44883,-0.7095648 0.770537,-0.9378759 0.321704,-0.2308974 0.719944,-0.3463481 1.194722,-0.3463526 0.1375,4.5e-6 0.345052,0.014274 0.622656,0.042808 0.04151,0.00519 0.103773,0.011679 0.186797,0.019458 l 0.727729,0 0,3.0704735 c -4e-6,0.52406977 0.05448,0.9495511 0.163448,1.2764453 L 13.15984,0 c -0.05708,-0.23868465 -0.102482,-0.56428165 -0.136206,-0.97679197 m 0,-0.86004393 0,-1.8640771 c -0.256849,-0.067451 -0.495534,-0.1011778 -0.716055,-0.1011816 -0.446239,3.8e-6 -0.818535,0.1725313 -1.116889,0.517583 -0.295764,0.3450582 -0.443644,0.8146443 -0.443643,1.4087597 -1e-6,0.430672 0.08042,0.756269 0.241279,0.97679196 0.163446,0.21793037 0.348945,0.3268951 0.556499,0.32689453 0.225711,5.7e-7 0.474773,-0.11415296 0.747188,-0.34246093 0.272409,-0.22830616 0.516282,-0.53574236 0.731621,-0.92230956"
               style="font-size:7.96999979px;font-variant:normal;font-weight:normal;writing-mode:lr-tb;fill:#000000;fill-opacity:1;fill-rule:nonzero;stroke:none;font-family:Courier;-inkscape-font-specification:Courier"
               id="path11535" /><path
               d="m 18.607303,-0.12453125 c -0.485156,0.16344723 -0.946959,0.24517077 -1.38541,0.2451709 -0.435862,-1.3e-7 -0.823724,-0.09988446 -1.163589,-0.29965332 -0.337273,-0.20236289 -0.600605,-0.47477472 -0.789995,-0.8172363 -0.189392,-0.34505403 -0.284087,-0.73680813 -0.284087,-1.17526363 0,-0.658975 0.214038,-1.2063931 0.642115,-1.6422558 0.430668,-0.4358551 0.949548,-0.6537846 1.55664,-0.6537891 0.448828,4.5e-6 0.923603,0.084322 1.424326,0.2529541 l 0,0.6965967 c -0.505912,-0.230898 -0.958634,-0.3463487 -1.358169,-0.3463525 -0.264631,3.8e-6 -0.513693,0.066161 -0.747187,0.1984716 -0.233498,0.1297236 -0.413809,0.3333839 -0.540933,0.6109815 -0.127127,0.2776036 -0.19069,0.5629875 -0.190688,0.8561523 -2e-6,0.3917563 0.121935,0.7653497 0.36581,1.1207812 0.246466,0.35543365 0.631735,0.53314994 1.155806,0.5331494 0.158255,5.4e-7 0.313919,-0.010377 0.466992,-0.0311328 0.153066,-0.023349 0.435856,-0.10507255 0.848369,-0.24517089 l 0,0.69659666"
               style="font-size:7.96999979px;font-variant:normal;font-weight:normal;writing-mode:lr-tb;fill:#000000;fill-opacity:1;fill-rule:nonzero;stroke:none;font-family:Courier;-inkscape-font-specification:Courier"
               id="path11537" /><path
               d="m 19.925779,0 0,-6.2810448 0.723837,0 0,3.9460839 2.08979,-2.0119579 0.965118,0 -2.085899,2.0119579 L 23.759006,0 l -0.99625,0 -2.11314,-2.3349609 0,2.3349609 -0.723837,0"
               style="font-size:7.96999979px;font-variant:normal;font-weight:normal;writing-mode:lr-tb;fill:#000000;fill-opacity:1;fill-rule:nonzero;stroke:none;font-family:Courier;-inkscape-font-specification:Courier"
               id="path11539" /><path
               d="m 24.793393,0 -0.75497,0 1.860185,-6.0397655 0.797778,0 L 28.568247,0 l -0.828911,0 -0.41251,-1.3270361 -2.124814,0 L 24.793393,0 m 0.595415,-1.9302343 1.762896,0 -0.72773,-2.2921533 -0.17123,-0.6070898 -0.151773,0.6070898 -0.712163,2.2921533"
               style="font-size:7.96999979px;font-variant:normal;font-weight:normal;writing-mode:lr-tb;fill:#000000;fill-opacity:1;fill-rule:nonzero;stroke:none;font-family:Courier;-inkscape-font-specification:Courier"
               id="path11541" /><path
               d="m 29.6649,0 0,-4.3469188 0.723838,0 0,0.9495507 c 0.225711,-0.3580236 0.483853,-0.6252466 0.774428,-0.8016699 0.293165,-0.1790093 0.618762,-0.268516 0.976792,-0.2685205 0.262031,4.5e-6 0.524065,0.040218 0.786104,0.1206397 l 0,1.5683154 -0.696597,0 0,-0.9923584 c -0.12194,-0.020751 -0.217933,-0.031129 -0.287978,-0.031133 -0.269821,3.8e-6 -0.53445,0.1063741 -0.793887,0.3191113 -0.259442,0.2127441 -0.512396,0.5318551 -0.758862,0.957334 L 30.388738,0 29.6649,0"
               style="font-size:7.96999979px;font-variant:normal;font-weight:normal;writing-mode:lr-tb;fill:#000000;fill-opacity:1;fill-rule:nonzero;stroke:none;font-family:Courier;-inkscape-font-specification:Courier"
               id="path11543" /></g></g><g
           id="g10137"
           transform="matrix(1.00028,0,0,1.00028,72,720)"><text
             transform="matrix(1,0,0,-1,129.29,-15.77)"
             id="text10139"><tspan
               style="font-size:7.96999979px;font-variant:normal;font-weight:normal;writing-mode:lr-tb;fill:#000000;fill-opacity:1;fill-rule:nonzero;stroke:none;font-family:Times New Roman;-inkscape-font-specification:Times-Roman"
               x="0"
               y="0"
               id="tspan10141">,</tspan></text>
</g><g
           id="g10143"
           transform="matrix(1.00028,0,0,1.00028,72,720)"><g
             transform="matrix(1,0,0,-1,133.28,-15.77)"
             style=""
             id="text10145"><path
               d="m 2.9031347,0.11285644 c 0.181605,0.3009501 0.3437549,0.50979917 0.4864502,0.62654784 0.1426885,0.11674719 0.328188,0.20365953 0.556499,0.26073732 0.2283031,0.057076 0.4812569,0.085614 0.7588623,0.085615 l 0.070049,0 0,0.6031982 -0.1829053,0 C 4.0913662,1.6889533 3.7268533,1.6370654 3.4985497,1.533291 3.2702392,1.4295135 3.0549041,1.269958 2.8525439,1.054624 2.6501779,0.83928788 2.4659757,0.54612086 2.2999365,0.17512207 1.8251593,0.12323392 1.4489715,-0.02724118 1.171372,-0.2763037 0.89636464,-0.52536567 0.67843518,-0.91063383 0.51758299,-1.4321093 0.35672978,-1.953582 0.27630343,-2.513972 0.2763037,-3.1132812 c -2.7e-7,-0.8769035 0.17512162,-1.6137126 0.5253662,-2.2104296 0.350243,-0.5967063 0.8795002,-0.8950621 1.5877734,-0.8950683 0.6849188,6.2e-6 1.2076901,0.2879844 1.5683154,0.8639355 0.3632118,0.5759618 0.5448197,1.3555785 0.5448242,2.3388525 -4.5e-6,0.4669947 -0.048001,0.9145284 -0.1439893,1.3426025 -0.093403,0.425483 -0.2568498,0.80037355 -0.4903417,1.12467279 C 3.6373465,-0.22700986 3.3156411,-0.006486 2.9031347,0.11285644 M 2.3894433,-5.6155809 c -0.3787846,5.6e-6 -0.6953012,0.2153407 -0.9495508,0.6460058 -0.251658,0.4280807 -0.3774864,1.0779775 -0.3774853,1.9496924 -1.1e-6,0.8717208 0.1258273,1.5229148 0.3774853,1.9535839 0.2542496,0.4280768 0.5707662,0.64211467 0.9495508,0.64211424 0.3787798,4.3e-7 0.6939992,-0.21403744 0.9456592,-0.64211424 0.2542477,-0.4306691 0.3813732,-1.0818631 0.3813769,-1.9535839 -3.7e-6,-0.8717149 -0.1271292,-1.5216117 -0.3813769,-1.9496924 -0.25166,-0.4306651 -0.5668794,-0.6460002 -0.9456592,-0.6460058"
               style="font-size:7.96999979px;font-variant:normal;font-weight:normal;writing-mode:lr-tb;fill:#000000;fill-opacity:1;fill-rule:nonzero;stroke:none;font-family:Courier;-inkscape-font-specification:Courier"
               id="path11516" /><path
               d="M 8.96158,-4.3469188 8.96158,0 8.2377422,0 l 0,-0.95344236 C 8.0042429,-0.59541443 7.744803,-0.3268942 7.4594219,-0.14788086 7.1740354,0.03113278 6.8886515,0.12063952 6.6032695,0.12063965 6.3490167,0.12063952 6.1155208,0.05318517 5.9027813,-0.08172363 5.6926339,-0.21922666 5.5460504,-0.39824015 5.4630303,-0.61876463 5.3800089,-0.84188227 5.3384985,-1.2751468 5.3384991,-1.9185595 l 0,-2.4283593 0.7238378,0 0,2.5178661 c -1.2e-6,0.4177 0.019457,0.6940034 0.058374,0.8289111 0.041509,0.13231534 0.1154494,0.24128007 0.2218213,0.32689455 0.1089631,0.0856158 0.225711,0.12842339 0.3502441,0.12842285 0.2542491,5.4e-7 0.5266609,-0.11934179 0.8172363,-0.35802734 C 7.803177,-1.1441297 8.0457532,-1.4476743 8.2377422,-1.8134863 l 0,-2.5334325 0.7238378,0"
               style="font-size:7.96999979px;font-variant:normal;font-weight:normal;writing-mode:lr-tb;fill:#000000;fill-opacity:1;fill-rule:nonzero;stroke:none;font-family:Courier;-inkscape-font-specification:Courier"
               id="path11518" /><path
               d="m 13.782496,-0.28797851 c -0.578555,0.27500652 -1.125973,0.41250963 -1.642256,0.41250976 -0.391756,-1.3e-7 -0.742,-0.09729007 -1.050732,-0.29187011 -0.308735,-0.19457971 -0.5565,-0.47218034 -0.743296,-0.83280274 -0.184203,-0.3632147 -0.276304,-0.7510773 -0.276304,-1.1635888 0,-0.3969408 0.08821,-0.7783174 0.264629,-1.1441308 0.176419,-0.3658069 0.422886,-0.6498935 0.739404,-0.8522608 0.316516,-0.2049533 0.669354,-0.307432 1.058516,-0.3074365 0.516283,4.5e-6 0.930089,0.1842068 1.241421,0.5526074 0.313918,0.3684085 0.470879,0.9365818 0.470884,1.7045215 l 0,0.155664 -2.996533,0 c -2e-6,0.3009523 0.06226,0.5759585 0.186796,0.8250195 0.127125,0.24906351 0.293166,0.4358602 0.498125,0.56039065 0.204956,0.12453179 0.438452,0.18679735 0.700489,0.18679687 0.466989,4.8e-7 0.983274,-0.15566342 1.548857,-0.46699218 l 0,0.66157225 m -2.89146,-2.30771969 2.167622,0 0,-0.1050732 c -3e-6,-0.3554299 -0.08692,-0.6382193 -0.260737,-0.8483691 -0.173828,-0.2101428 -0.406027,-0.3152159 -0.696597,-0.3152197 -0.293169,3.8e-6 -0.54742,0.1076713 -0.762754,0.3230029 -0.212742,0.2127442 -0.36192,0.5279636 -0.447534,0.9456591"
               style="font-size:7.96999979px;font-variant:normal;font-weight:normal;writing-mode:lr-tb;fill:#000000;fill-opacity:1;fill-rule:nonzero;stroke:none;font-family:Courier;-inkscape-font-specification:Courier"
               id="path11520" /><path
               d="m 18.52558,-4.3469188 0,4.3469188 -0.723838,0 0,-0.95344236 c -0.233499,0.35802793 -0.492939,0.62654816 -0.77832,0.8055615 -0.285387,0.17901364 -0.570771,0.26852038 -0.856153,0.26852051 -0.254253,-1.3e-7 -0.487749,-0.06745448 -0.700488,-0.20236328 -0.210147,-0.13750303 -0.356731,-0.31651652 -0.439751,-0.537041 -0.08302,-0.22311764 -0.124532,-0.65638217 -0.124531,-1.29979487 l 0,-2.4283593 0.723838,0 0,2.5178661 c -2e-6,0.4177 0.01946,0.6940034 0.05837,0.8289111 0.04151,0.13231534 0.115449,0.24128007 0.221821,0.32689455 0.108963,0.0856158 0.225711,0.12842339 0.350244,0.12842285 0.254249,5.4e-7 0.526661,-0.11934179 0.817236,-0.35802734 0.293165,-0.24127816 0.535741,-0.54482276 0.72773,-0.91063476 l 0,-2.5334325 0.723838,0"
               style="font-size:7.96999979px;font-variant:normal;font-weight:normal;writing-mode:lr-tb;fill:#000000;fill-opacity:1;fill-rule:nonzero;stroke:none;font-family:Courier;-inkscape-font-specification:Courier"
               id="path11522" /><path
               d="m 23.346496,-0.28797851 c -0.578555,0.27500652 -1.125973,0.41250963 -1.642256,0.41250976 -0.391756,-1.3e-7 -0.742,-0.09729007 -1.050732,-0.29187011 -0.308735,-0.19457971 -0.5565,-0.47218034 -0.743296,-0.83280274 -0.184203,-0.3632147 -0.276304,-0.7510773 -0.276304,-1.1635888 0,-0.3969408 0.08821,-0.7783174 0.264629,-1.1441308 0.176419,-0.3658069 0.422887,-0.6498935 0.739405,-0.8522608 0.316515,-0.2049533 0.669353,-0.307432 1.058515,-0.3074365 0.516283,4.5e-6 0.930089,0.1842068 1.241421,0.5526074 0.313918,0.3684085 0.47088,0.9365818 0.470884,1.7045215 l 0,0.155664 -2.996533,0 c -2e-6,0.3009523 0.06226,0.5759585 0.186797,0.8250195 0.127124,0.24906351 0.293165,0.4358602 0.498125,0.56039065 0.204955,0.12453179 0.438451,0.18679735 0.700488,0.18679687 0.466989,4.8e-7 0.983274,-0.15566342 1.548857,-0.46699218 l 0,0.66157225 m -2.89146,-2.30771969 2.167622,0 0,-0.1050732 c -3e-6,-0.3554299 -0.08692,-0.6382193 -0.260737,-0.8483691 -0.173828,-0.2101428 -0.406027,-0.3152159 -0.696597,-0.3152197 -0.293169,3.8e-6 -0.54742,0.1076713 -0.762753,0.3230029 -0.212743,0.2127442 -0.361921,0.5279636 -0.447535,0.9456591"
               style="font-size:7.96999979px;font-variant:normal;font-weight:normal;writing-mode:lr-tb;fill:#000000;fill-opacity:1;fill-rule:nonzero;stroke:none;font-family:Courier;-inkscape-font-specification:Courier"
               id="path11524" /><path
               d="m 24.793393,0 -0.75497,0 1.860185,-6.0397655 0.797778,0 L 28.568247,0 l -0.828911,0 -0.41251,-1.3270361 -2.124814,0 L 24.793393,0 m 0.595415,-1.9302343 1.762896,0 -0.72773,-2.2921533 -0.17123,-0.6070898 -0.151773,0.6070898 -0.712163,2.2921533"
               style="font-size:7.96999979px;font-variant:normal;font-weight:normal;writing-mode:lr-tb;fill:#000000;fill-opacity:1;fill-rule:nonzero;stroke:none;font-family:Courier;-inkscape-font-specification:Courier"
               id="path11526" /><path
               d="m 29.6649,0 0,-4.3469188 0.723838,0 0,0.9495507 c 0.225711,-0.3580236 0.483853,-0.6252466 0.774428,-0.8016699 0.293165,-0.1790093 0.618762,-0.268516 0.976792,-0.2685205 0.262031,4.5e-6 0.524065,0.040218 0.786104,0.1206397 l 0,1.5683154 -0.696597,0 0,-0.9923584 c -0.12194,-0.020751 -0.217933,-0.031129 -0.287978,-0.031133 -0.269821,3.8e-6 -0.53445,0.1063741 -0.793887,0.3191113 -0.259442,0.2127441 -0.512396,0.5318551 -0.758862,0.957334 L 30.388738,0 29.6649,0"
               style="font-size:7.96999979px;font-variant:normal;font-weight:normal;writing-mode:lr-tb;fill:#000000;fill-opacity:1;fill-rule:nonzero;stroke:none;font-family:Courier;-inkscape-font-specification:Courier"
               id="path11528" /></g></g><g
           id="g10149"
           transform="matrix(1.00028,0,0,1.00028,72,720)"><text
             transform="matrix(1,0,0,-1,166.74,-15.77)"
             id="text10151"><tspan
               style="font-size:7.96999979px;font-variant:normal;font-weight:normal;writing-mode:lr-tb;fill:#000000;fill-opacity:1;fill-rule:nonzero;stroke:none;font-family:Times New Roman;-inkscape-font-specification:Times-Roman"
               x="0"
               y="0"
               id="tspan10153">,</tspan></text>
</g><g
           id="g10155"
           transform="matrix(1.00028,0,0,1.00028,72,720)"><g
             transform="matrix(1,0,0,-1,170.73,-15.77)"
             style=""
             id="text10157"><path
               d="m 0.60319823,0 0,-6.0397655 1.43210937,0 c 0.6589751,6.1e-6 1.1480192,0.1154568 1.4671337,0.3463526 0.3217019,0.2283127 0.562981,0.5746649 0.7238379,1.0390576 0.1608485,0.4644019 0.2412748,1.0144144 0.2412793,1.650039 -4.5e-6,0.6019034 -0.08562,1.1311607 -0.2568457,1.5877734 -0.1686401,0.4540211 -0.408622,0.80426488 -0.7199463,1.05073236 C 3.1794352,-0.12193672 2.6942827,0 2.0353076,0 L 0.60319823,0 m 0.78610347,-0.66546385 0.5253662,0 c 0.5318498,6.7e-7 0.9106319,-0.0946949 1.1363476,-0.28408691 0.2283041,-0.18939014 0.3904539,-0.45142434 0.4864502,-0.78610354 0.098584,-0.33727 0.1478772,-0.8016673 0.1478809,-1.3931933 -3.7e-6,-0.5785477 -0.057081,-1.023487 -0.1712305,-1.3348193 C 3.3999591,-4.7749902 3.236512,-5.0136749 3.0237743,-5.1797215 2.8110306,-5.3483523 2.4620841,-5.4326702 1.9769335,-5.4326756 l -0.5876318,0 0,4.76721175"
               style="font-size:7.96999979px;font-variant:normal;font-weight:normal;writing-mode:lr-tb;fill:#000000;fill-opacity:1;fill-rule:nonzero;stroke:none;font-family:Courier;-inkscape-font-specification:Courier"
               id="path11499" /><path
               d="m 6.6032695,0 0,-3.7437206 -1.2063964,0 0,-0.6031982 1.9302343,0 0,3.74372057 1.2102881,0 0,0.60319823 -1.934126,0 M 6.4826299,-5.9152342 c -1.7e-6,-0.1634412 0.055778,-0.2853779 0.1673389,-0.3658106 0.1115572,-0.08042 0.2166304,-0.1206332 0.3152197,-0.1206396 0.1011793,6.4e-6 0.2075497,0.04022 0.3191113,0.1206396 0.1115566,0.080433 0.1673362,0.2023694 0.1673389,0.3658106 -2.7e-6,0.1608586 -0.055782,0.2814981 -0.1673389,0.3619189 -0.1115616,0.080432 -0.217932,0.1206451 -0.3191113,0.1206397 -0.098589,5.4e-6 -0.2036625,-0.040208 -0.3152197,-0.1206397 -0.111561,-0.080421 -0.1673406,-0.2010603 -0.1673389,-0.3619189"
               style="font-size:7.96999979px;font-variant:normal;font-weight:normal;writing-mode:lr-tb;fill:#000000;fill-opacity:1;fill-rule:nonzero;stroke:none;font-family:Courier;-inkscape-font-specification:Courier"
               id="path11501" /><path
               d="m 10.217789,-0.22960449 0,-0.76664548 c 0.290572,0.18939207 0.598008,0.32300359 0.92231,0.40083495 0.324298,0.0752382 0.599304,0.11285692 0.825019,0.11285644 0.365808,4.8e-7 0.629139,-0.0583735 0.789995,-0.17512207 0.16085,-0.11934166 0.241276,-0.26722237 0.24128,-0.44364255 -4e-6,-0.1167468 -0.03762,-0.2166312 -0.112857,-0.2996533 -0.07524,-0.083019 -0.262037,-0.1854981 -0.56039,-0.3074365 l -0.249063,-0.1011817 -0.502017,-0.1984717 c -0.539636,-0.2101442 -0.879503,-0.4047241 -1.019599,-0.5837402 -0.142693,-0.1764165 -0.214039,-0.3917515 -0.214038,-0.6460058 -10e-7,-0.3580238 0.137502,-0.652488 0.41251,-0.8833935 0.277599,-0.2308974 0.72643,-0.3463481 1.346494,-0.3463526 0.464394,4.5e-6 0.904145,0.067459 1.319253,0.2023633 l 0,0.6576806 c -0.477374,-0.1712266 -0.926204,-0.2568418 -1.346495,-0.2568456 -0.306141,3.8e-6 -0.546123,0.054486 -0.719946,0.1634472 -0.171232,0.106374 -0.256847,0.2399856 -0.256845,0.400835 -2e-6,0.1556672 0.07524,0.2801983 0.225712,0.3735937 0.147879,0.093401 0.389158,0.2010688 0.723838,0.3230029 l 0.490342,0.1790137 c 0.448828,0.1634495 0.764047,0.3411658 0.945659,0.5331494 0.181604,0.1919874 0.272408,0.4319692 0.272412,0.7199463 -4e-6,0.3761889 -0.14529,0.6862195 -0.435859,0.93009271 C 13.027522,0 12.565719,0.12063952 11.930094,0.12063965 11.37489,0.12063952 10.804123,0.0038916 10.217789,-0.22960449"
               style="font-size:7.96999979px;font-variant:normal;font-weight:normal;writing-mode:lr-tb;fill:#000000;fill-opacity:1;fill-rule:nonzero;stroke:none;font-family:Courier;-inkscape-font-specification:Courier"
               id="path11503" /><path
               d="m 15.015355,1.7045214 0,-0.6771386 c 0.404726,0.1193413 0.745889,0.1790124 1.023491,0.1790137 0.241278,-1.3e-6 0.446235,-0.042809 0.614873,-0.1284229 0.168634,-0.0830218 0.299651,-0.22441653 0.393052,-0.42418455 0.09599,-0.19976933 0.143987,-0.54741872 0.143989,-1.0429492 l 0,-3.35456045 -1.844619,0 0,-0.6031982 2.568457,0 0,3.8215526 c -3e-6,0.73680967 -0.08692,1.24790615 -0.260737,1.533291 -0.173828,0.2879772 -0.383974,0.4942319 -0.630439,0.6187646 -0.246471,0.1245295 -0.583743,0.1867951 -1.011817,0.1867969 -0.308735,-1.8e-6 -0.640818,-0.036323 -0.99625,-0.1089649 m 2.054766,-7.6197556 c -3e-6,-0.1634412 0.05448,-0.2853779 0.163447,-0.3658106 0.111556,-0.08042 0.217927,-0.1206332 0.319111,-0.1206396 0.101179,6.4e-6 0.206252,0.04022 0.31522,0.1206396 0.111556,0.080433 0.167335,0.2023694 0.167339,0.3658106 -4e-6,0.1608586 -0.05578,0.2814981 -0.167339,0.3619189 -0.108968,0.080432 -0.214041,0.1206451 -0.31522,0.1206397 -0.101184,5.4e-6 -0.207555,-0.040208 -0.319111,-0.1206397 -0.108968,-0.080421 -0.16345,-0.2010603 -0.163447,-0.3619189"
               style="font-size:7.96999979px;font-variant:normal;font-weight:normal;writing-mode:lr-tb;fill:#000000;fill-opacity:1;fill-rule:nonzero;stroke:none;font-family:Courier;-inkscape-font-specification:Courier"
               id="path11505" /><path
               d="m 19.738982,-0.12842285 0,-0.73940428 c 0.622655,0.29576229 1.188234,0.443643 1.696738,0.44364257 0.212738,4.3e-7 0.416399,-0.0402128 0.610981,-0.12063964 0.194577,-0.0830202 0.341161,-0.20106533 0.439751,-0.35413574 0.101178,-0.15306856 0.151769,-0.31911006 0.151773,-0.49812496 -4e-6,-0.2101449 -0.06875,-0.406022 -0.206255,-0.5876318 -0.137507,-0.1842003 -0.395649,-0.3865634 -0.774429,-0.6070899 l -0.396943,-0.2296045 -0.400835,-0.2296044 c -0.705678,-0.4176951 -1.058516,-0.9365748 -1.058516,-1.5566406 0,-0.4540151 0.156961,-0.8353917 0.470884,-1.1441309 0.316516,-0.311322 0.809451,-0.4669859 1.478809,-0.4669921 0.430667,6.2e-6 0.847068,0.062272 1.249204,0.1867968 l 0,0.6732471 c -0.443646,-0.1712249 -0.875614,-0.2568401 -1.295904,-0.2568457 -0.33468,5.6e-6 -0.605794,0.088215 -0.813344,0.2646289 -0.20496,0.1764244 -0.307438,0.3891651 -0.307437,0.6382226 -1e-6,0.2464726 0.07913,0.4514301 0.237388,0.6148731 0.158257,0.1634512 0.36062,0.3139263 0.60709,0.4514257 l 0.303545,0.1829053 0.377485,0.2296045 0.319111,0.1867969 c 0.661569,0.4047292 0.992354,0.9132312 0.992359,1.5255077 -5e-6,0.4669933 -0.169938,0.86782781 -0.5098,1.20250488 -0.33987,0.33467771 -0.884694,0.50201641 -1.634473,0.50201659 -0.238687,-1.8e-7 -0.466994,-0.0207554 -0.684922,-0.0622656 -0.215336,-0.0389161 -0.499423,-0.12193685 -0.85226,-0.2490625"
               style="font-size:7.96999979px;font-variant:normal;font-weight:normal;writing-mode:lr-tb;fill:#000000;fill-opacity:1;fill-rule:nonzero;stroke:none;font-family:Courier;-inkscape-font-specification:Courier"
               id="path11507" /><path
               d="m 28.128496,-0.28797851 c -0.578555,0.27500652 -1.125973,0.41250963 -1.642256,0.41250976 -0.391757,-1.3e-7 -0.742,-0.09729007 -1.050732,-0.29187011 -0.308735,-0.19457971 -0.5565,-0.47218034 -0.743296,-0.83280274 -0.184203,-0.3632147 -0.276304,-0.7510773 -0.276304,-1.1635888 0,-0.3969408 0.08821,-0.7783174 0.264629,-1.1441308 0.176418,-0.3658069 0.422886,-0.6498935 0.739404,-0.8522608 0.316515,-0.2049533 0.669353,-0.307432 1.058516,-0.3074365 0.516283,4.5e-6 0.930089,0.1842068 1.241421,0.5526074 0.313918,0.3684085 0.470879,0.9365818 0.470883,1.7045215 l 0,0.155664 -2.996533,0 c -10e-7,0.3009523 0.06227,0.5759585 0.186797,0.8250195 0.127124,0.24906351 0.293166,0.4358602 0.498125,0.56039065 0.204956,0.12453179 0.438452,0.18679735 0.700488,0.18679687 0.466989,4.8e-7 0.983275,-0.15566342 1.548858,-0.46699218 l 0,0.66157225 m -2.89146,-2.30771969 2.167622,0 0,-0.1050732 c -4e-6,-0.3554299 -0.08692,-0.6382193 -0.260737,-0.8483691 -0.173828,-0.2101428 -0.406027,-0.3152159 -0.696597,-0.3152197 -0.29317,3.8e-6 -0.547421,0.1076713 -0.762754,0.3230029 -0.212742,0.2127442 -0.36192,0.5279636 -0.447534,0.9456591"
               style="font-size:7.96999979px;font-variant:normal;font-weight:normal;writing-mode:lr-tb;fill:#000000;fill-opacity:1;fill-rule:nonzero;stroke:none;font-family:Courier;-inkscape-font-specification:Courier"
               id="path11509" /><path
               d="m 32.929953,-0.17512207 c -0.33987,0.14269209 -0.586338,0.22701004 -0.739404,0.2529541 -0.153073,0.0285383 -0.300954,0.04280749 -0.443642,0.04280762 -0.303548,-1.3e-7 -0.581149,-0.05837409 -0.832803,-0.17512207 C 30.662445,-0.17123029 30.471757,-0.34375779 30.342038,-0.57206541 30.214911,-0.8003719 30.151349,-1.1532101 30.15135,-1.630581 l 0,-1.7512207 -1.085757,0 0,-0.6031982 1.085757,0 0,-1.7512207 0.723838,0 0,1.7512207 1.934126,0 0,0.6031982 -1.934126,0 0,1.7395459 c -2e-6,0.3502454 0.04151,0.5980105 0.124531,0.74329586 0.08302,0.14269281 0.19328,0.24776595 0.330786,0.31521972 0.140095,0.0674549 0.304839,0.10118212 0.494234,0.10118164 0.35024,4.8e-7 0.718645,-0.11026145 1.105214,-0.33078613 l 0,0.63822264"
               style="font-size:7.96999979px;font-variant:normal;font-weight:normal;writing-mode:lr-tb;fill:#000000;fill-opacity:1;fill-rule:nonzero;stroke:none;font-family:Courier;-inkscape-font-specification:Courier"
               id="path11511" /><path
               d="m 34.127788,-0.22960449 0,-0.76664548 c 0.290572,0.18939207 0.598008,0.32300359 0.92231,0.40083495 0.324298,0.0752382 0.599304,0.11285692 0.825019,0.11285644 0.365808,4.8e-7 0.629139,-0.0583735 0.789995,-0.17512207 0.16085,-0.11934166 0.241276,-0.26722237 0.24128,-0.44364255 -4e-6,-0.1167468 -0.03762,-0.2166312 -0.112857,-0.2996533 -0.07524,-0.083019 -0.262037,-0.1854981 -0.560391,-0.3074365 l -0.249062,-0.1011817 -0.502017,-0.1984717 c -0.539636,-0.2101442 -0.879503,-0.4047241 -1.019599,-0.5837402 -0.142693,-0.1764165 -0.214039,-0.3917515 -0.214038,-0.6460058 -10e-7,-0.3580238 0.137502,-0.652488 0.412509,-0.8833935 0.2776,-0.2308974 0.726431,-0.3463481 1.346495,-0.3463526 0.464394,4.5e-6 0.904145,0.067459 1.319252,0.2023633 l 0,0.6576806 c -0.477373,-0.1712266 -0.926204,-0.2568418 -1.346494,-0.2568456 -0.306141,3.8e-6 -0.546123,0.054486 -0.719946,0.1634472 -0.171232,0.106374 -0.256847,0.2399856 -0.256846,0.400835 -10e-7,0.1556672 0.07524,0.2801983 0.225713,0.3735937 0.147879,0.093401 0.389158,0.2010688 0.723838,0.3230029 l 0.490342,0.1790137 c 0.448828,0.1634495 0.764047,0.3411658 0.945659,0.5331494 0.181604,0.1919874 0.272408,0.4319692 0.272412,0.7199463 -4e-6,0.3761889 -0.14529,0.6862195 -0.435859,0.93009271 C 36.937521,0 36.475718,0.12063952 35.840093,0.12063965 35.284889,0.12063952 34.714121,0.0038916 34.127788,-0.22960449"
               style="font-size:7.96999979px;font-variant:normal;font-weight:normal;writing-mode:lr-tb;fill:#000000;fill-opacity:1;fill-rule:nonzero;stroke:none;font-family:Courier;-inkscape-font-specification:Courier"
               id="path11513" /></g></g><g
           id="g10161"
           transform="matrix(1.00028,0,0,1.00028,72,720)"><path
             d="m 214.35,-18.46 0,8.97"
             style="fill:none;stroke:#000000;stroke-width:0.40000001;stroke-linecap:butt;stroke-linejoin:miter;stroke-miterlimit:10;stroke-opacity:1;stroke-dasharray:none"
             id="path10163"
             inkscape:connector-curvature="0" /></g><g
           id="g10165"
           transform="matrix(1.00028,0,0,1.00028,72,720)"><path
             d="m -11.71,-27.42 0,8.96"
             style="fill:none;stroke:#000000;stroke-width:0.40000001;stroke-linecap:butt;stroke-linejoin:miter;stroke-miterlimit:10;stroke-opacity:1;stroke-dasharray:none"
             id="path10167"
             inkscape:connector-curvature="0" /></g><g
           id="g10169"
           transform="matrix(1.00028,0,0,1.00028,72,720)"><text
             transform="matrix(1,0,0,-1,-2.34,-24.73)"
             id="text10171"><tspan
               style="font-size:7.96999979px;font-variant:normal;font-weight:normal;writing-mode:lr-tb;fill:#000000;fill-opacity:1;fill-rule:nonzero;stroke:none;font-family:Times New Roman;-inkscape-font-specification:Times-Roman"
               x="0 4.8696699 8.8546696 12.83967 16.378349 19.03236 21.24802 24.786699 28.7717 32.310379"
               y="0"
               sodipodi:role="line"
               id="tspan10173">Experience</tspan></text>
</g><g
           id="g10175"
           transform="matrix(1.00028,0,0,1.00028,72,720)"><path
             d="m 90.45,-27.42 0,8.96"
             style="fill:none;stroke:#000000;stroke-width:0.40000001;stroke-linecap:butt;stroke-linejoin:miter;stroke-miterlimit:10;stroke-opacity:1;stroke-dasharray:none"
             id="path10177"
             inkscape:connector-curvature="0" /></g><g
           id="g10179"
           transform="matrix(1.00028,0,0,1.00028,72,720)"><text
             transform="matrix(1,0,0,-1,95.83,-24.73)"
             id="text10181"><tspan
               style="font-size:7.96999979px;font-variant:normal;font-weight:normal;writing-mode:lr-tb;fill:#000000;fill-opacity:1;fill-rule:nonzero;stroke:none;font-family:Times New Roman;-inkscape-font-specification:Times-Roman"
               x="0 4.4313202 7.08533 10.18566 14.38585 16.601509 19.25552 21.47118 25.009859 27.225519 31.21052 34.310848 37.849529 41.38821 45.373211 49.358212 55.335709 57.551369 60.205379 62.42104 65.959717"
               y="0"
               sodipodi:role="line"
               id="tspan10183">frsttrial,secondtrial</tspan></text>
</g><g
           id="g10185"
           transform="matrix(1.00028,0,0,1.00028,72,720)"><path
             d="m 214.35,-27.42 0,8.96"
             style="fill:none;stroke:#000000;stroke-width:0.40000001;stroke-linecap:butt;stroke-linejoin:miter;stroke-miterlimit:10;stroke-opacity:1;stroke-dasharray:none"
             id="path10187"
             inkscape:connector-curvature="0" /></g><g
           id="g10189"
           transform="matrix(1.00028,0,0,1.00028,72,720)"><path
             d="m -11.71,-36.38 0,8.96"
             style="fill:none;stroke:#000000;stroke-width:0.40000001;stroke-linecap:butt;stroke-linejoin:miter;stroke-miterlimit:10;stroke-opacity:1;stroke-dasharray:none"
             id="path10191"
             inkscape:connector-curvature="0" /></g><g
           id="g10193"
           transform="matrix(1.00028,0,0,1.00028,72,720)"><text
             transform="matrix(1,0,0,-1,-2.34,-33.69)"
             id="text10195"><tspan
               style="font-size:7.96999979px;font-variant:normal;font-weight:normal;writing-mode:lr-tb;fill:#000000;fill-opacity:1;fill-rule:nonzero;stroke:none;font-family:Times New Roman;-inkscape-font-specification:Times-Roman"
               x="0 4.8696699 8.8546696 12.39335 15.93203 18.14769 20.36335 24.348351"
               y="0"
               sodipodi:role="line"
               id="tspan10197">Location</tspan></text>
</g><g
           id="g10199"
           transform="matrix(1.00028,0,0,1.00028,72,720)"><path
             d="m 90.45,-36.38 0,8.96"
             style="fill:none;stroke:#000000;stroke-width:0.40000001;stroke-linecap:butt;stroke-linejoin:miter;stroke-miterlimit:10;stroke-opacity:1;stroke-dasharray:none"
             id="path10201"
             inkscape:connector-curvature="0" /></g><g
           id="g10203"
           transform="matrix(1.00028,0,0,1.00028,72,720)"><text
             transform="matrix(1,0,0,-1,95.83,-33.69)"
             id="text10205"><tspan
               style="font-size:7.96999979px;font-variant:normal;font-weight:normal;writing-mode:lr-tb;fill:#000000;fill-opacity:1;fill-rule:nonzero;stroke:none;font-family:Times New Roman;-inkscape-font-specification:Times-Roman"
               x="0 7.08533 9.7393398 14.01923 17.99626 23.750601 27.7356 29.759979 33.226929 37.20396 41.188961 45.835468 52.729519 56.2682 59.36853 63.353531"
               y="0"
               sodipodi:role="line"
               id="tspan10207">MIT,Univ.ofWash.</tspan></text>
</g><g
           id="g10209"
           transform="matrix(1.00028,0,0,1.00028,72,720)"><path
             d="m 214.35,-36.38 0,8.96"
             style="fill:none;stroke:#000000;stroke-width:0.40000001;stroke-linecap:butt;stroke-linejoin:miter;stroke-miterlimit:10;stroke-opacity:1;stroke-dasharray:none"
             id="path10211"
             inkscape:connector-curvature="0" /></g><g
           id="g10213"
           transform="matrix(1.00028,0,0,1.00028,72,720)"><path
             d="m -11.71,-45.35 0,8.97"
             style="fill:none;stroke:#000000;stroke-width:0.40000001;stroke-linecap:butt;stroke-linejoin:miter;stroke-miterlimit:10;stroke-opacity:1;stroke-dasharray:none"
             id="path10215"
             inkscape:connector-curvature="0" /></g><g
           id="g10217"
           transform="matrix(1.00028,0,0,1.00028,72,720)"><text
             transform="matrix(1,0,0,-1,-2.34,-42.66)"
             id="text10219"><tspan
               style="font-size:7.96999979px;font-variant:normal;font-weight:normal;writing-mode:lr-tb;fill:#000000;fill-opacity:1;fill-rule:nonzero;stroke:none;font-family:Times New Roman;-inkscape-font-specification:Times-Roman"
               x="0 5.7543402 8.8546696 12.83967 16.378349 20.578541 24.11722 27.791389 31.77639 33.99205 36.646061 40.631062 44.616058 50.816719 54.3554 58.340401"
               y="0"
               sodipodi:role="line"
               id="tspan10221">Usualenvironment</tspan></text>
</g><g
           id="g10223"
           transform="matrix(1.00028,0,0,1.00028,72,720)"><path
             d="m 90.45,-45.35 0,8.97"
             style="fill:none;stroke:#000000;stroke-width:0.40000001;stroke-linecap:butt;stroke-linejoin:miter;stroke-miterlimit:10;stroke-opacity:1;stroke-dasharray:none"
             id="path10225"
             inkscape:connector-curvature="0" /></g><g
           id="g10227"
           transform="matrix(1.00028,0,0,1.00028,72,720)"><text
             transform="matrix(1,0,0,-1,95.83,-42.66)"
             id="text10229"><tspan
               style="font-size:7.96999979px;font-variant:normal;font-weight:normal;writing-mode:lr-tb;fill:#000000;fill-opacity:1;fill-rule:nonzero;stroke:none;font-family:Times New Roman;-inkscape-font-specification:Times-Roman"
               x="0 5.7543402 9.7393398 11.955 15.94 19.91703 27.129881 29.345539 33.33054 37.31554 41.101292 46.855629 49.955959 53.932991 57.917992 61.902988 64.118652"
               y="0"
               sodipodi:role="line"
               id="tspan10231">Unix,Windows,both</tspan></text>
</g><g
           id="g10233"
           transform="matrix(1.00028,0,0,1.00028,72,720)"><path
             d="m 214.35,-45.35 0,8.97"
             style="fill:none;stroke:#000000;stroke-width:0.40000001;stroke-linecap:butt;stroke-linejoin:miter;stroke-miterlimit:10;stroke-opacity:1;stroke-dasharray:none"
             id="path10235"
             inkscape:connector-curvature="0" /></g><g
           id="g10237"
           transform="matrix(1.00028,0,0,1.00028,72,720)"><path
             d="m -11.71,-54.31 0,8.96"
             style="fill:none;stroke:#000000;stroke-width:0.40000001;stroke-linecap:butt;stroke-linejoin:miter;stroke-miterlimit:10;stroke-opacity:1;stroke-dasharray:none"
             id="path10239"
             inkscape:connector-curvature="0" /></g><g
           id="g10241"
           transform="matrix(1.00028,0,0,1.00028,72,720)"><text
             transform="matrix(1,0,0,-1,-2.34,-51.62)"
             id="text10243"><tspan
               style="font-size:7.96999979px;font-variant:normal;font-weight:normal;writing-mode:lr-tb;fill:#000000;fill-opacity:1;fill-rule:nonzero;stroke:none;font-family:Times New Roman;-inkscape-font-specification:Times-Roman"
               x="0 4.9573398 8.4960203 12.0347 14.68871 19.773569 23.75857 28.405081 31.94376 35.928761 38.144421 40.360081 43.787182 47.772179 53.295391 56.834068 60.819069 64.80407 68.342751 71.881432 74.097092 76.312752 80.297752"
               y="0"
               sodipodi:role="line"
               id="tspan10245">Yearsofcollegeeducation</tspan></text>
</g><g
           id="g10247"
           transform="matrix(1.00028,0,0,1.00028,72,720)"><path
             d="m 90.45,-54.31 0,8.96"
             style="fill:none;stroke:#000000;stroke-width:0.40000001;stroke-linecap:butt;stroke-linejoin:miter;stroke-miterlimit:10;stroke-opacity:1;stroke-dasharray:none"
             id="path10249"
             inkscape:connector-curvature="0" /></g><g
           id="g10251"
           transform="matrix(1.00028,0,0,1.00028,72,720)"><path
             d="m 214.35,-54.31 0,8.96"
             style="fill:none;stroke:#000000;stroke-width:0.40000001;stroke-linecap:butt;stroke-linejoin:miter;stroke-miterlimit:10;stroke-opacity:1;stroke-dasharray:none"
             id="path10253"
             inkscape:connector-curvature="0" /></g><g
           id="g10255"
           transform="matrix(1.00028,0,0,1.00028,72,720)"><path
             d="m -11.71,-63.28 0,8.97"
             style="fill:none;stroke:#000000;stroke-width:0.40000001;stroke-linecap:butt;stroke-linejoin:miter;stroke-miterlimit:10;stroke-opacity:1;stroke-dasharray:none"
             id="path10257"
             inkscape:connector-curvature="0" /></g><g
           id="g10259"
           transform="matrix(1.00028,0,0,1.00028,72,720)"><text
             transform="matrix(1,0,0,-1,-2.34,-60.59)"
             id="text10261"><tspan
               style="font-size:7.96999979px;font-variant:normal;font-weight:normal;writing-mode:lr-tb;fill:#000000;fill-opacity:1;fill-rule:nonzero;stroke:none;font-family:Times New Roman;-inkscape-font-specification:Times-Roman"
               x="0 4.9573398 8.4960203 12.0347 14.68871 19.773569 23.75857 26.41258 30.397579 34.38258 37.036591 40.575272 46.775928 52.976589 55.192249 59.17725"
               y="0"
               sodipodi:role="line"
               id="tspan10263">Yearsprogramming</tspan></text>
</g><g
           id="g10265"
           transform="matrix(1.00028,0,0,1.00028,72,720)"><path
             d="m 90.45,-63.28 0,8.97"
             style="fill:none;stroke:#000000;stroke-width:0.40000001;stroke-linecap:butt;stroke-linejoin:miter;stroke-miterlimit:10;stroke-opacity:1;stroke-dasharray:none"
             id="path10267"
             inkscape:connector-curvature="0" /></g><g
           id="g10269"
           transform="matrix(1.00028,0,0,1.00028,72,720)"><path
             d="m 214.35,-63.28 0,8.97"
             style="fill:none;stroke:#000000;stroke-width:0.40000001;stroke-linecap:butt;stroke-linejoin:miter;stroke-miterlimit:10;stroke-opacity:1;stroke-dasharray:none"
             id="path10271"
             inkscape:connector-curvature="0" /></g><g
           id="g10273"
           transform="matrix(1.00028,0,0,1.00028,72,720)"><path
             d="m -11.71,-72.24 0,8.96"
             style="fill:none;stroke:#000000;stroke-width:0.40000001;stroke-linecap:butt;stroke-linejoin:miter;stroke-miterlimit:10;stroke-opacity:1;stroke-dasharray:none"
             id="path10275"
             inkscape:connector-curvature="0" /></g><g
           id="g10277"
           transform="matrix(1.00028,0,0,1.00028,72,720)"><text
             transform="matrix(1,0,0,-1,-2.34,-69.55)"
             id="text10279"><tspan
               style="font-size:7.96999979px;font-variant:normal;font-weight:normal;writing-mode:lr-tb;fill:#000000;fill-opacity:1;fill-rule:nonzero;stroke:none;font-family:Times New Roman;-inkscape-font-specification:Times-Roman"
               x="0 4.9573398 8.4960203 12.0347 14.68871 19.773569 22.873899 26.26115 30.0469 35.57011 39.555111 42.209122 46.194118 50.179119 52.83313 56.371811 62.572472 68.773132 70.988792 74.973793"
               y="0"
               sodipodi:role="line"
               id="tspan10281">YearsJavaprogramming</tspan></text>
</g><g
           id="g10283"
           transform="matrix(1.00028,0,0,1.00028,72,720)"><path
             d="m 90.45,-72.24 0,8.96"
             style="fill:none;stroke:#000000;stroke-width:0.40000001;stroke-linecap:butt;stroke-linejoin:miter;stroke-miterlimit:10;stroke-opacity:1;stroke-dasharray:none"
             id="path10285"
             inkscape:connector-curvature="0" /></g><g
           id="g10287"
           transform="matrix(1.00028,0,0,1.00028,72,720)"><path
             d="m 214.35,-72.24 0,8.96"
             style="fill:none;stroke:#000000;stroke-width:0.40000001;stroke-linecap:butt;stroke-linejoin:miter;stroke-miterlimit:10;stroke-opacity:1;stroke-dasharray:none"
             id="path10289"
             inkscape:connector-curvature="0" /></g><g
           id="g10291"
           transform="matrix(1.00028,0,0,1.00028,72,720)"><path
             d="m -11.71,-81.2 0,8.96"
             style="fill:none;stroke:#000000;stroke-width:0.40000001;stroke-linecap:butt;stroke-linejoin:miter;stroke-miterlimit:10;stroke-opacity:1;stroke-dasharray:none"
             id="path10293"
             inkscape:connector-curvature="0" /></g><g
           id="g10295"
           transform="matrix(1.00028,0,0,1.00028,72,720)"><text
             transform="matrix(1,0,0,-1,-2.34,-78.51)"
             id="text10297"><tspan
               style="font-size:7.96999979px;font-variant:normal;font-weight:normal;writing-mode:lr-tb;fill:#000000;fill-opacity:1;fill-rule:nonzero;stroke:none;font-family:Times New Roman;-inkscape-font-specification:Times-Roman"
               x="0 7.5236802 10.17769 12.39335 14.60901 18.14769 23.23255 26.771231 29.871559 32.971889 36.510571 39.164581 41.380241 46.473068 48.688728 54.666229 58.20491 62.189911 66.174911"
               y="0"
               sodipodi:role="line"
               id="tspan10299">Writesassertsincode</tspan></text>
</g><g
           id="g10301"
           transform="matrix(1.00028,0,0,1.00028,72,720)"><path
             d="m 90.45,-81.2 0,8.96"
             style="fill:none;stroke:#000000;stroke-width:0.40000001;stroke-linecap:butt;stroke-linejoin:miter;stroke-miterlimit:10;stroke-opacity:1;stroke-dasharray:none"
             id="path10303"
             inkscape:connector-curvature="0" /></g><g
           id="g10305"
           transform="matrix(1.00028,0,0,1.00028,72,720)"><text
             transform="matrix(1,0,0,-1,95.83,-78.51)"
             id="text10307"><tspan
               style="font-size:7.96999979px;font-variant:normal;font-weight:normal;writing-mode:lr-tb;fill:#000000;fill-opacity:1;fill-rule:nonzero;stroke:none;font-family:Times New Roman;-inkscape-font-specification:Times-Roman"
               x="0 3.9849999 7.32443 11.18988 14.72856 17.06377 21.0408 23.694811 27.23349 29.887501 33.426182 35.641842 39.11676 43.093788 46.194118 50.179119 56.37978 59.918461 62.134121 64.349777 70.550438 74.089119 77.189453"
               y="0"
               sodipodi:role="line"
               id="tspan10309">never,rarely,sometimes,</tspan></text>
</g><g
           id="g10311"
           transform="matrix(1.00028,0,0,1.00028,72,720)"><path
             d="m 214.35,-81.2 0,8.96"
             style="fill:none;stroke:#000000;stroke-width:0.40000001;stroke-linecap:butt;stroke-linejoin:miter;stroke-miterlimit:10;stroke-opacity:1;stroke-dasharray:none"
             id="path10313"
             inkscape:connector-curvature="0" /></g><g
           id="g10315"
           transform="matrix(1.00028,0,0,1.00028,72,720)"><path
             d="m -11.71,-90.17 0,8.97"
             style="fill:none;stroke:#000000;stroke-width:0.40000001;stroke-linecap:butt;stroke-linejoin:miter;stroke-miterlimit:10;stroke-opacity:1;stroke-dasharray:none"
             id="path10317"
             inkscape:connector-curvature="0" /></g><g
           id="g10319"
           transform="matrix(1.00028,0,0,1.00028,72,720)"><text
             transform="matrix(1,0,0,-1,-2.34,-87.48)"
             id="text10321"><tspan
               style="font-size:7.96999979px;font-variant:normal;font-weight:normal;writing-mode:lr-tb;fill:#000000;fill-opacity:1;fill-rule:nonzero;stroke:none;font-family:Times New Roman;-inkscape-font-specification:Times-Roman"
               x="0 7.5236802 10.17769 12.39335 14.60901 18.14769 23.23255 26.771231 29.871559 32.971889 36.510571 39.164581 41.380241 46.473068 48.688728 54.666229 58.20491 62.189911 68.390572 74.591232 78.129913 82.114906 84.330566"
               y="0"
               sodipodi:role="line"
               id="tspan10323">Writesassertsincomments</tspan></text>
</g><g
           id="g10325"
           transform="matrix(1.00028,0,0,1.00028,72,720)"><path
             d="m 90.45,-90.17 0,8.97"
             style="fill:none;stroke:#000000;stroke-width:0.40000001;stroke-linecap:butt;stroke-linejoin:miter;stroke-miterlimit:10;stroke-opacity:1;stroke-dasharray:none"
             id="path10327"
             inkscape:connector-curvature="0" /></g><g
           id="g10329"
           transform="matrix(1.00028,0,0,1.00028,72,720)"><text
             transform="matrix(1,0,0,-1,103.8,-87.48)"
             id="text10331"><tspan
               style="font-size:7.96999979px;font-variant:normal;font-weight:normal;writing-mode:lr-tb;fill:#000000;fill-opacity:1;fill-rule:nonzero;stroke:none;font-family:Times New Roman;-inkscape-font-specification:Times-Roman"
               x="0 3.9849999 6.63901 8.8546696 12.39335 16.378349 20.355379 24.34038 27.44071 31.425711 34.96439 37.18005 39.39571 42.870628 46.84766 50.386341 52.53027 58.20491 61.743591 65.728592"
               y="0"
               sodipodi:role="line"
               id="tspan10333">often,usually,always</tspan></text>
</g><g
           id="g10335"
           transform="matrix(1.00028,0,0,1.00028,72,720)"><path
             d="m 214.35,-90.17 0,8.97"
             style="fill:none;stroke:#000000;stroke-width:0.40000001;stroke-linecap:butt;stroke-linejoin:miter;stroke-miterlimit:10;stroke-opacity:1;stroke-dasharray:none"
             id="path10337"
             inkscape:connector-curvature="0" /></g><g
           id="g10339"
           transform="matrix(1.00028,0,0,1.00028,72,720)"><path
             d="m -11.71,-90.37 226.06,0"
             style="fill:none;stroke:#000000;stroke-width:0.40000001;stroke-linecap:butt;stroke-linejoin:miter;stroke-miterlimit:10;stroke-opacity:1;stroke-dasharray:none"
             id="path10341"
             inkscape:connector-curvature="0" /></g><g
           id="g10343"
           transform="matrix(1.00028,0,0,1.00028,72,720)"><path
             d="m -11.71,-99.53 0,8.96"
             style="fill:none;stroke:#000000;stroke-width:0.40000001;stroke-linecap:butt;stroke-linejoin:miter;stroke-miterlimit:10;stroke-opacity:1;stroke-dasharray:none"
             id="path10345"
             inkscape:connector-curvature="0" /></g><g
           id="g10347"
           transform="matrix(1.00028,0,0,1.00028,72,720)"><text
             transform="matrix(1,0,0,-1,-6.33,-96.84)"
             id="text10349"><tspan
               style="font-size:7.96999979px;font-variant:normal;font-weight:normal;writing-mode:lr-tb;fill:#000000;fill-opacity:1;fill-rule:nonzero;stroke:none;font-family:Times New Roman;-inkscape-font-specification:Times-Roman"
               x="0 5.7543402 9.2930202 13.27802 16.8167 20.801701 24.786699 28.32538 32.310379 36.518539 40.31226 43.850941 46.504951 48.720612 52.259289 56.244289 58.459949 61.998631"
               y="0"
               sodipodi:role="line"
               id="tspan10351">Dependentvariables</tspan></text>
</g><g
           id="g10353"
           transform="matrix(1.00028,0,0,1.00028,72,720)"><path
             d="m 90.45,-99.53 0,8.96"
             style="fill:none;stroke:#000000;stroke-width:0.40000001;stroke-linecap:butt;stroke-linejoin:miter;stroke-miterlimit:10;stroke-opacity:1;stroke-dasharray:none"
             id="path10355"
             inkscape:connector-curvature="0" /></g><g
           id="g10357"
           transform="matrix(1.00028,0,0,1.00028,72,720)"><path
             d="m 214.35,-99.53 0,8.96"
             style="fill:none;stroke:#000000;stroke-width:0.40000001;stroke-linecap:butt;stroke-linejoin:miter;stroke-miterlimit:10;stroke-opacity:1;stroke-dasharray:none"
             id="path10359"
             inkscape:connector-curvature="0" /></g><g
           id="g10361"
           transform="matrix(1.00028,0,0,1.00028,72,720)"><path
             d="m -11.71,-108.49 0,8.96"
             style="fill:none;stroke:#000000;stroke-width:0.40000001;stroke-linecap:butt;stroke-linejoin:miter;stroke-miterlimit:10;stroke-opacity:1;stroke-dasharray:none"
             id="path10363"
             inkscape:connector-curvature="0" /></g><g
           id="g10365"
           transform="matrix(1.00028,0,0,1.00028,72,720)"><text
             transform="matrix(1,0,0,-1,-2.34,-105.8)"
             id="text10367"><tspan
               style="font-size:7.96999979px;font-variant:normal;font-weight:normal;writing-mode:lr-tb;fill:#000000;fill-opacity:1;fill-rule:nonzero;stroke:none;font-family:Times New Roman;-inkscape-font-specification:Times-Roman"
               x="0 4.4313202 8.4163198 11.955 15.49368 19.03236 22.13269"
               y="0"
               sodipodi:role="line"
               id="tspan10369">Success</tspan></text>
</g><g
           id="g10371"
           transform="matrix(1.00028,0,0,1.00028,72,720)"><path
             d="m 90.45,-108.49 0,8.96"
             style="fill:none;stroke:#000000;stroke-width:0.40000001;stroke-linecap:butt;stroke-linejoin:miter;stroke-miterlimit:10;stroke-opacity:1;stroke-dasharray:none"
             id="path10373"
             inkscape:connector-curvature="0" /></g><g
           id="g10375"
           transform="matrix(1.00028,0,0,1.00028,72,720)"><text
             transform="matrix(1,0,0,-1,95.83,-105.8)"
             id="text10377"><tspan
               style="font-size:7.96999979px;font-variant:normal;font-weight:normal;writing-mode:lr-tb;fill:#000000;fill-opacity:1;fill-rule:nonzero;stroke:none;font-family:Times New Roman;-inkscape-font-specification:Times-Roman"
               x="0 3.9849999 7.5236802 10.62401 14.60104 18.58604"
               y="0"
               sodipodi:role="line"
               id="tspan10379">yes,no</tspan></text>
</g><g
           id="g10381"
           transform="matrix(1.00028,0,0,1.00028,72,720)"><path
             d="m 214.35,-108.49 0,8.96"
             style="fill:none;stroke:#000000;stroke-width:0.40000001;stroke-linecap:butt;stroke-linejoin:miter;stroke-miterlimit:10;stroke-opacity:1;stroke-dasharray:none"
             id="path10383"
             inkscape:connector-curvature="0" /></g><g
           id="g10385"
           transform="matrix(1.00028,0,0,1.00028,72,720)"><path
             d="m -11.71,-117.46 0,8.97"
             style="fill:none;stroke:#000000;stroke-width:0.40000001;stroke-linecap:butt;stroke-linejoin:miter;stroke-miterlimit:10;stroke-opacity:1;stroke-dasharray:none"
             id="path10387"
             inkscape:connector-curvature="0" /></g><g
           id="g10389"
           transform="matrix(1.00028,0,0,1.00028,72,720)"><text
             transform="matrix(1,0,0,-1,-2.34,-114.77)"
             id="text10391"><tspan
               style="font-size:7.96999979px;font-variant:normal;font-weight:normal;writing-mode:lr-tb;fill:#000000;fill-opacity:1;fill-rule:nonzero;stroke:none;font-family:Times New Roman;-inkscape-font-specification:Times-Roman"
               x="0 4.5907202 6.8063798 13.00704 18.530251 21.630581 25.61558 29.154261 33.139259"
               y="0"
               sodipodi:role="line"
               id="tspan10393">Timespent</tspan></text>
</g><g
           id="g10395"
           transform="matrix(1.00028,0,0,1.00028,72,720)"><path
             d="m 90.45,-117.46 0,8.97"
             style="fill:none;stroke:#000000;stroke-width:0.40000001;stroke-linecap:butt;stroke-linejoin:miter;stroke-miterlimit:10;stroke-opacity:1;stroke-dasharray:none"
             id="path10397"
             inkscape:connector-curvature="0" /></g><g
           id="g10399"
           transform="matrix(1.00028,0,0,1.00028,72,720)"><text
             transform="matrix(1,0,0,-1,95.83,-114.77)"
             id="text10401"><tspan
               style="font-size:7.96999979px;font-variant:normal;font-weight:normal;writing-mode:lr-tb;fill:#000000;fill-opacity:1;fill-rule:nonzero;stroke:none;font-family:Times New Roman;-inkscape-font-specification:Times-Roman"
               x="0 3.9849999 9.9545298 12.17019 18.14769 22.13269 28.110189 34.310848 36.526508 40.511509 44.49651 46.71217 50.250851"
               y="0"
               sodipodi:role="line"
               id="tspan10403">upto60minutes</tspan></text>
</g><g
           id="g10405"
           transform="matrix(1.00028,0,0,1.00028,72,720)"><path
             d="m 214.35,-117.46 0,8.97"
             style="fill:none;stroke:#000000;stroke-width:0.40000001;stroke-linecap:butt;stroke-linejoin:miter;stroke-miterlimit:10;stroke-opacity:1;stroke-dasharray:none"
             id="path10407"
             inkscape:connector-curvature="0" /></g><g
           id="g10409"
           transform="matrix(1.00028,0,0,1.00028,72,720)"><path
             d="m -11.71,-126.42 0,8.96"
             style="fill:none;stroke:#000000;stroke-width:0.40000001;stroke-linecap:butt;stroke-linejoin:miter;stroke-miterlimit:10;stroke-opacity:1;stroke-dasharray:none"
             id="path10411"
             inkscape:connector-curvature="0" /></g><g
           id="g10413"
           transform="matrix(1.00028,0,0,1.00028,72,720)"><text
             transform="matrix(1,0,0,-1,-2.34,-123.73)"
             id="text10415"><tspan
               style="font-size:7.96999979px;font-variant:normal;font-weight:normal;writing-mode:lr-tb;fill:#000000;fill-opacity:1;fill-rule:nonzero;stroke:none;font-family:Times New Roman;-inkscape-font-specification:Times-Roman"
               x="0 4.4313202 6.6469798 10.63198 14.17066 18.37085 24.125191 26.7792 28.99486 31.21052 33.426182 36.964859 42.94236 46.481041 50.466042 53.566368 59.320709 62.85939"
               y="0"
               sodipodi:role="line"
               id="tspan10417">Finalwrittenanswer</tspan></text>
</g><g
           id="g10419"
           transform="matrix(1.00028,0,0,1.00028,72,720)"><path
             d="m 90.45,-126.42 0,8.96"
             style="fill:none;stroke:#000000;stroke-width:0.40000001;stroke-linecap:butt;stroke-linejoin:miter;stroke-miterlimit:10;stroke-opacity:1;stroke-dasharray:none"
             id="path10421"
             inkscape:connector-curvature="0" /></g><g
           id="g10423"
           transform="matrix(1.00028,0,0,1.00028,72,720)"><text
             transform="matrix(1,0,0,-1,95.83,-123.73)"
             id="text10425"><tspan
               style="font-size:7.96999979px;font-variant:normal;font-weight:normal;writing-mode:lr-tb;fill:#000000;fill-opacity:1;fill-rule:nonzero;stroke:none;font-family:Times New Roman;-inkscape-font-specification:Times-Roman"
               x="0 3.1003301 6.63901 10.8392 14.8242 19.470711 23.00939 26.99439 30.979389 34.96439 37.18005 40.718731 42.934391 45.150051 49.135052 53.120049 58.212879 60.86689 65.29821 67.51387 71.498871 75.483871 78.137878 83.66906 87.65406"
               y="0"
               sodipodi:role="line"
               id="tspan10427">setofannotations(Figure7)</tspan></text>
</g><g
           id="g10429"
           transform="matrix(1.00028,0,0,1.00028,72,720)"><path
             d="m 214.35,-126.42 0,8.96"
             style="fill:none;stroke:#000000;stroke-width:0.40000001;stroke-linecap:butt;stroke-linejoin:miter;stroke-miterlimit:10;stroke-opacity:1;stroke-dasharray:none"
             id="path10431"
             inkscape:connector-curvature="0" /></g><g
           id="g10433"
           transform="matrix(1.00028,0,0,1.00028,72,720)"><path
             d="m -11.71,-135.38 0,8.96"
             style="fill:none;stroke:#000000;stroke-width:0.40000001;stroke-linecap:butt;stroke-linejoin:miter;stroke-miterlimit:10;stroke-opacity:1;stroke-dasharray:none"
             id="path10435"
             inkscape:connector-curvature="0" /></g><g
           id="g10437"
           transform="matrix(1.00028,0,0,1.00028,72,720)"><text
             transform="matrix(1,0,0,-1,-2.34,-132.7)"
             id="text10439"><tspan
               style="font-size:7.96999979px;font-variant:normal;font-weight:normal;writing-mode:lr-tb;fill:#000000;fill-opacity:1;fill-rule:nonzero;stroke:none;font-family:Times New Roman;-inkscape-font-specification:Times-Roman"
               x="0 5.7543402 9.2930202 12.8317 15.48571 19.024389 22.12472 26.324909 30.19833 33.737011 36.391022 38.606682 43.037998 46.576679 50.56168 52.77734 58.300549 61.83923 65.824226 68.924561 74.678902 78.217583"
               y="0"
               sodipodi:role="line"
               id="tspan10441">Nearestverifableanswer</tspan></text>
</g><g
           id="g10443"
           transform="matrix(1.00028,0,0,1.00028,72,720)"><path
             d="m 90.45,-135.38 0,8.96"
             style="fill:none;stroke:#000000;stroke-width:0.40000001;stroke-linecap:butt;stroke-linejoin:miter;stroke-miterlimit:10;stroke-opacity:1;stroke-dasharray:none"
             id="path10445"
             inkscape:connector-curvature="0" /></g><g
           id="g10447"
           transform="matrix(1.00028,0,0,1.00028,72,720)"><text
             transform="matrix(1,0,0,-1,95.83,-132.7)"
             id="text10449"><tspan
               style="font-size:7.96999979px;font-variant:normal;font-weight:normal;writing-mode:lr-tb;fill:#000000;fill-opacity:1;fill-rule:nonzero;stroke:none;font-family:Times New Roman;-inkscape-font-specification:Times-Roman"
               x="0 3.1003301 6.63901 10.8392 14.8242 19.470711 23.00939 26.99439 30.979389 34.96439 37.18005 40.718731 42.934391 45.150051 49.135052 53.120049 58.212879 60.86689 65.29821 67.51387 71.498871 75.483871 78.137878 83.66906 87.65406"
               y="0"
               sodipodi:role="line"
               id="tspan10451">setofannotations(Figure7)</tspan></text>
</g><g
           id="g10453"
           transform="matrix(1.00028,0,0,1.00028,72,720)"><path
             d="m 214.35,-135.38 0,8.96"
             style="fill:none;stroke:#000000;stroke-width:0.40000001;stroke-linecap:butt;stroke-linejoin:miter;stroke-miterlimit:10;stroke-opacity:1;stroke-dasharray:none"
             id="path10455"
             inkscape:connector-curvature="0" /></g><g
           id="g10457"
           transform="matrix(1.00028,0,0,1.00028,72,720)"><path
             d="m -11.71,-135.58 226.06,0"
             style="fill:none;stroke:#000000;stroke-width:0.40000001;stroke-linecap:butt;stroke-linejoin:miter;stroke-miterlimit:10;stroke-opacity:1;stroke-dasharray:none"
             id="path10459"
             inkscape:connector-curvature="0" /></g><g
           id="g10461"
           transform="matrix(1.00028,0,0,1.00028,72,720)"><text
             transform="matrix(1,0,0,-1,-18.2,-152.06)"
             id="text10463"><tspan
               style="font-size:8.96000004px;font-variant:normal;font-weight:normal;writing-mode:lr-tb;fill:#000000;fill-opacity:1;fill-rule:nonzero;stroke:none;font-family:Times New Roman;-inkscape-font-specification:Times-Roman"
               x="0 4.98176 7.47264 11.95264 16.43264 19.416321 25.132799 29.612801"
               y="0"
               sodipodi:role="line"
               id="tspan10465">Figure5:</tspan></text>
</g><g
           id="g10467"
           transform="matrix(1.00028,0,0,1.00028,72,720)"><text
             transform="matrix(1,0,0,-1,16.45,-152.06)"
             id="text10469"><tspan
               style="font-size:7.96999979px;font-variant:normal;font-weight:normal;writing-mode:lr-tb;fill:#000000;fill-opacity:1;fill-rule:nonzero;stroke:none;font-family:Times New Roman;-inkscape-font-specification:Times-Roman"
               x="0 4.8776398 8.4163198 11.07033 13.28599 16.824671 20.809669 23.02533 26.564011 31.202551 37.40321 40.941891 44.480572 47.580898 51.565899 54.21991 57.758591 63.289768 66.828453 70.813454 76.3526 78.56826 82.553261 86.091942 88.307602 92.50779 96.49279 100.47779 106.67845 110.21713 112.43279 117.96397 120.61798 123.71831 127.25699 131.01883 135.00383 139.21199 143.19699 147.18199 150.28232 153.38264 155.59831 159.58331 161.79897 166.88383 170.67755 174.21623 176.43188 180.41689 183.95557 187.05589 189.70992 194.0137 200.91573"
               y="0"
               sodipodi:role="line"
               id="tspan10471">Variablesmeasuredandtheirdomain(setofpossiblevalues).We</tspan></text>
</g><g
           id="g10473"
           transform="matrix(1.00028,0,0,1.00028,72,720)"><text
             transform="matrix(1,0,0,-1,-18.2,-162.51)"
             id="text10475"><tspan
               style="font-size:7.96999979px;font-variant:normal;font-weight:normal;writing-mode:lr-tb;fill:#000000;fill-opacity:1;fill-rule:nonzero;stroke:none;font-family:Times New Roman;-inkscape-font-specification:Times-Roman"
               x="0 3.5386801 5.7543402 8.8546696 14.83217 18.37085 22.35585 25.894529 28.110189 32.095188 35.633869 41.165051 44.703732 48.688728 54.889389 58.87439 62.85939 65.07505 68.613731 74.591232 78.384949 81.92363 84.13929 88.12429 91.662971 94.763298 98.740334 101.84066 105.82566 109.36434 115.34184 118.88052 123.97335 127.95835 130.61237 134.15105 137.68971 139.90538 143.00571 145.22137 149.20638 155.18387 158.72255 162.70755 168.68504 171.33907 174.87775 178.41643 181.95509 184.17076 188.37892 191.03293 195.46425 199.00293 202.54161 204.75726 206.97293 210.95793 216.93542 220.92043 222.91293 226.89793 228.89043 232.87543 235.52943"
               y="0"
               sodipodi:role="line"
               id="tspan10477">alsoanalyzecomputedvalues,suchasprecisionandrecall(Section3.4.3).</tspan></text>
</g></g></g></g></svg>