<?xml version="1.0" encoding="UTF-8" standalone="no"?>
<!-- Created with Inkscape (http://www.inkscape.org/) -->

<svg
   xmlns:dc="http://purl.org/dc/elements/1.1/"
   xmlns:cc="http://creativecommons.org/ns#"
   xmlns:rdf="http://www.w3.org/1999/02/22-rdf-syntax-ns#"
   xmlns:svg="http://www.w3.org/2000/svg"
   xmlns="http://www.w3.org/2000/svg"
   xmlns:sodipodi="http://sodipodi.sourceforge.net/DTD/sodipodi-0.dtd"
   xmlns:inkscape="http://www.inkscape.org/namespaces/inkscape"
   id="svg5383"
   version="1.1"
   inkscape:version="0.48.4 r9939"
   width="884.43134"
   height="438.54684"
   xml:space="preserve"
   sodipodi:docname="fevan.pdf"><metadata
     id="metadata5389"><rdf:RDF><cc:Work
         rdf:about=""><dc:format>image/svg+xml</dc:format><dc:type
           rdf:resource="http://purl.org/dc/dcmitype/StillImage" /><dc:title></dc:title></cc:Work></rdf:RDF></metadata><defs
     id="defs5387"><clipPath
       clipPathUnits="userSpaceOnUse"
       id="clipPath5399"><path
         d="M 0,0 612,0 612,792 0,792 0,0 z"
         id="path5401"
         inkscape:connector-curvature="0" /></clipPath></defs><sodipodi:namedview
     pagecolor="#ffffff"
     bordercolor="#666666"
     borderopacity="1"
     objecttolerance="10"
     gridtolerance="10"
     guidetolerance="10"
     inkscape:pageopacity="0"
     inkscape:pageshadow="2"
     inkscape:window-width="1652"
     inkscape:window-height="1022"
     id="namedview5385"
     showgrid="false"
     fit-margin-top="10"
     fit-margin-right="10"
     fit-margin-bottom="10"
     fit-margin-left="10"
     inkscape:zoom="0.50539007"
     inkscape:cx="90.234897"
     inkscape:cy="-169.26133"
     inkscape:window-x="10"
     inkscape:window-y="10"
     inkscape:window-maximized="0"
     inkscape:current-layer="g5395" /><g
     id="g5391"
     inkscape:groupmode="layer"
     inkscape:label="fevan"
     transform="matrix(1.25,0,0,-1.25,225.75573,1071.9906)"><g
       id="g5393" /><g
       id="g5395"><g
         id="g5397"
         clip-path="url(#clipPath5399)"
         transform="matrix(3,0,0,3,-346.33588,-1364.9853)"><g
           id="g5403"
           transform="matrix(1.00028,0,0,1.00028,72,720)"><path
             d="m 89.68,18 118.3,0"
             style="fill:none;stroke:#000000;stroke-width:0.40000001;stroke-linecap:butt;stroke-linejoin:miter;stroke-miterlimit:10;stroke-opacity:1;stroke-dasharray:none"
             id="path5405"
             inkscape:connector-curvature="0" /></g><g
           id="g5407"
           transform="matrix(1.00028,0,0,1.00028,72,720)"><path
             d="m 89.68,9.23 0,8.97"
             style="fill:none;stroke:#000000;stroke-width:0.40000001;stroke-linecap:butt;stroke-linejoin:miter;stroke-miterlimit:10;stroke-opacity:1;stroke-dasharray:none"
             id="path5409"
             inkscape:connector-curvature="0" /></g><g
           id="g5411"
           transform="matrix(1.00028,0,0,1.00028,72,720)"><text
             transform="matrix(1,0,0,-1,97.06,11.92)"
             id="text5413"><tspan
               style="font-size:7.96999979px;font-variant:normal;font-weight:normal;writing-mode:lr-tb;fill:#000000;fill-opacity:1;fill-rule:nonzero;stroke:none;font-family:Times New Roman;-inkscape-font-specification:Times-Roman"
               x="0 7.08533 10.62401 14.16269"
               y="0"
               sodipodi:role="line"
               id="tspan5415">Mean</tspan></text>
</g><g
           id="g5417"
           transform="matrix(1.00028,0,0,1.00028,72,720)"><path
             d="m 122.57,9.23 0,8.97"
             style="fill:none;stroke:#000000;stroke-width:0.40000001;stroke-linecap:butt;stroke-linejoin:miter;stroke-miterlimit:10;stroke-opacity:1;stroke-dasharray:none"
             id="path5419"
             inkscape:connector-curvature="0" /></g><g
           id="g5421"
           transform="matrix(1.00028,0,0,1.00028,72,720)"><text
             transform="matrix(1,0,0,-1,129.94,11.92)"
             id="text5423"><tspan
               style="font-size:7.96999979px;font-variant:normal;font-weight:normal;writing-mode:lr-tb;fill:#000000;fill-opacity:1;fill-rule:nonzero;stroke:none;font-family:Times New Roman;-inkscape-font-specification:Times-Roman"
               x="0 5.7543402 9.09377 12.56072"
               y="0"
               sodipodi:role="line"
               id="tspan5425">Dev.</tspan></text>
</g><g
           id="g5427"
           transform="matrix(1.00028,0,0,1.00028,72,720)"><path
             d="m 149.87,9.23 0,8.97"
             style="fill:none;stroke:#000000;stroke-width:0.40000001;stroke-linecap:butt;stroke-linejoin:miter;stroke-miterlimit:10;stroke-opacity:1;stroke-dasharray:none"
             id="path5429"
             inkscape:connector-curvature="0" /></g><g
           id="g5431"
           transform="matrix(1.00028,0,0,1.00028,72,720)"><text
             transform="matrix(1,0,0,-1,157.24,11.92)"
             id="text5433"><tspan
               style="font-size:7.96999979px;font-variant:normal;font-weight:normal;writing-mode:lr-tb;fill:#000000;fill-opacity:1;fill-rule:nonzero;stroke:none;font-family:Times New Roman;-inkscape-font-specification:Times-Roman"
               x="0 7.08533 9.3009901 13.28599"
               y="0"
               sodipodi:role="line"
               id="tspan5435">Min.</tspan></text>
</g><g
           id="g5437"
           transform="matrix(1.00028,0,0,1.00028,72,720)"><path
             d="m 177.89,9.23 0,8.97"
             style="fill:none;stroke:#000000;stroke-width:0.40000001;stroke-linecap:butt;stroke-linejoin:miter;stroke-miterlimit:10;stroke-opacity:1;stroke-dasharray:none"
             id="path5439"
             inkscape:connector-curvature="0" /></g><g
           id="g5441"
           transform="matrix(1.00028,0,0,1.00028,72,720)"><text
             transform="matrix(1,0,0,-1,185.63,11.92)"
             id="text5443"><tspan
               style="font-size:7.96999979px;font-variant:normal;font-weight:normal;writing-mode:lr-tb;fill:#000000;fill-opacity:1;fill-rule:nonzero;stroke:none;font-family:Times New Roman;-inkscape-font-specification:Times-Roman"
               x="0 7.08533 10.62401 14.60901"
               y="0"
               sodipodi:role="line"
               id="tspan5445">Max.</tspan></text>
</g><g
           id="g5447"
           transform="matrix(1.00028,0,0,1.00028,72,720)"><path
             d="m 207.98,9.23 0,8.97"
             style="fill:none;stroke:#000000;stroke-width:0.40000001;stroke-linecap:butt;stroke-linejoin:miter;stroke-miterlimit:10;stroke-opacity:1;stroke-dasharray:none"
             id="path5449"
             inkscape:connector-curvature="0" /></g><g
           id="g5451"
           transform="matrix(1.00028,0,0,1.00028,72,720)"><path
             d="m -5.34,9.03 213.32,0"
             style="fill:none;stroke:#000000;stroke-width:0.40000001;stroke-linecap:butt;stroke-linejoin:miter;stroke-miterlimit:10;stroke-opacity:1;stroke-dasharray:none"
             id="path5453"
             inkscape:connector-curvature="0" /></g><g
           id="g5455"
           transform="matrix(1.00028,0,0,1.00028,72,720)"><path
             d="m -5.34,-0.13 0,8.96"
             style="fill:none;stroke:#000000;stroke-width:0.40000001;stroke-linecap:butt;stroke-linejoin:miter;stroke-miterlimit:10;stroke-opacity:1;stroke-dasharray:none"
             id="path5457"
             inkscape:connector-curvature="0" /></g><g
           id="g5459"
           transform="matrix(1.00028,0,0,1.00028,72,720)"><text
             transform="matrix(1,0,0,-1,0.04,2.56)"
             id="text5461"><tspan
               style="font-size:7.96999979px;font-variant:normal;font-weight:normal;writing-mode:lr-tb;fill:#000000;fill-opacity:1;fill-rule:nonzero;stroke:none;font-family:Times New Roman;-inkscape-font-specification:Times-Roman"
               x="0 4.9573398 8.4960203 12.0347 14.68871 19.773569 23.75857 28.405081 31.94376 35.928761 38.144421 40.360081 43.787182 47.772179 53.295391 56.834068 60.819069 64.80407 68.342751 71.881432 74.097092 76.312752 80.297752"
               y="0"
               sodipodi:role="line"
               id="tspan5463">Yearsofcollegeeducation</tspan></text>
</g><g
           id="g5465"
           transform="matrix(1.00028,0,0,1.00028,72,720)"><path
             d="m 89.68,-0.13 0,8.96"
             style="fill:none;stroke:#000000;stroke-width:0.40000001;stroke-linecap:butt;stroke-linejoin:miter;stroke-miterlimit:10;stroke-opacity:1;stroke-dasharray:none"
             id="path5467"
             inkscape:connector-curvature="0" /></g><g
           id="g5469"
           transform="matrix(1.00028,0,0,1.00028,72,720)"><text
             transform="matrix(1,0,0,-1,103.14,2.56)"
             id="text5471"><tspan
               style="font-size:7.96999979px;font-variant:normal;font-weight:normal;writing-mode:lr-tb;fill:#000000;fill-opacity:1;fill-rule:nonzero;stroke:none;font-family:Times New Roman;-inkscape-font-specification:Times-Roman"
               x="0 3.9849999 5.9775"
               y="0"
               sodipodi:role="line"
               id="tspan5473">7.0</tspan></text>
</g><g
           id="g5475"
           transform="matrix(1.00028,0,0,1.00028,72,720)"><path
             d="m 122.57,-0.13 0,8.96"
             style="fill:none;stroke:#000000;stroke-width:0.40000001;stroke-linecap:butt;stroke-linejoin:miter;stroke-miterlimit:10;stroke-opacity:1;stroke-dasharray:none"
             id="path5477"
             inkscape:connector-curvature="0" /></g><g
           id="g5479"
           transform="matrix(1.00028,0,0,1.00028,72,720)"><text
             transform="matrix(1,0,0,-1,131.24,2.56)"
             id="text5481"><tspan
               style="font-size:7.96999979px;font-variant:normal;font-weight:normal;writing-mode:lr-tb;fill:#000000;fill-opacity:1;fill-rule:nonzero;stroke:none;font-family:Times New Roman;-inkscape-font-specification:Times-Roman"
               x="0 3.9849999 5.9775"
               y="0"
               sodipodi:role="line"
               id="tspan5483">2.6</tspan></text>
</g><g
           id="g5485"
           transform="matrix(1.00028,0,0,1.00028,72,720)"><path
             d="m 149.87,-0.13 0,8.96"
             style="fill:none;stroke:#000000;stroke-width:0.40000001;stroke-linecap:butt;stroke-linejoin:miter;stroke-miterlimit:10;stroke-opacity:1;stroke-dasharray:none"
             id="path5487"
             inkscape:connector-curvature="0" /></g><g
           id="g5489"
           transform="matrix(1.00028,0,0,1.00028,72,720)"><text
             transform="matrix(1,0,0,-1,161.89,2.56)"
             id="text5491"><tspan
               style="font-size:7.96999979px;font-variant:normal;font-weight:normal;writing-mode:lr-tb;fill:#000000;fill-opacity:1;fill-rule:nonzero;stroke:none;font-family:Times New Roman;-inkscape-font-specification:Times-Roman"
               x="0"
               y="0"
               id="tspan5493">3</tspan></text>
</g><g
           id="g5495"
           transform="matrix(1.00028,0,0,1.00028,72,720)"><path
             d="m 177.89,-0.13 0,8.96"
             style="fill:none;stroke:#000000;stroke-width:0.40000001;stroke-linecap:butt;stroke-linejoin:miter;stroke-miterlimit:10;stroke-opacity:1;stroke-dasharray:none"
             id="path5497"
             inkscape:connector-curvature="0" /></g><g
           id="g5499"
           transform="matrix(1.00028,0,0,1.00028,72,720)"><text
             transform="matrix(1,0,0,-1,188.95,2.56)"
             id="text5501"><tspan
               style="font-size:7.96999979px;font-variant:normal;font-weight:normal;writing-mode:lr-tb;fill:#000000;fill-opacity:1;fill-rule:nonzero;stroke:none;font-family:Times New Roman;-inkscape-font-specification:Times-Roman"
               x="0 3.9849999"
               y="0"
               sodipodi:role="line"
               id="tspan5503">14</tspan></text>
</g><g
           id="g5505"
           transform="matrix(1.00028,0,0,1.00028,72,720)"><path
             d="m 207.98,-0.13 0,8.96"
             style="fill:none;stroke:#000000;stroke-width:0.40000001;stroke-linecap:butt;stroke-linejoin:miter;stroke-miterlimit:10;stroke-opacity:1;stroke-dasharray:none"
             id="path5507"
             inkscape:connector-curvature="0" /></g><g
           id="g5509"
           transform="matrix(1.00028,0,0,1.00028,72,720)"><path
             d="m -5.34,-0.33 213.32,0"
             style="fill:none;stroke:#000000;stroke-width:0.40000001;stroke-linecap:butt;stroke-linejoin:miter;stroke-miterlimit:10;stroke-opacity:1;stroke-dasharray:none"
             id="path5511"
             inkscape:connector-curvature="0" /></g><g
           id="g5513"
           transform="matrix(1.00028,0,0,1.00028,72,720)"><path
             d="m -5.34,-9.49 0,8.96"
             style="fill:none;stroke:#000000;stroke-width:0.40000001;stroke-linecap:butt;stroke-linejoin:miter;stroke-miterlimit:10;stroke-opacity:1;stroke-dasharray:none"
             id="path5515"
             inkscape:connector-curvature="0" /></g><g
           id="g5517"
           transform="matrix(1.00028,0,0,1.00028,72,720)"><text
             transform="matrix(1,0,0,-1,0.04,-6.8)"
             id="text5519"><tspan
               style="font-size:7.96999979px;font-variant:normal;font-weight:normal;writing-mode:lr-tb;fill:#000000;fill-opacity:1;fill-rule:nonzero;stroke:none;font-family:Times New Roman;-inkscape-font-specification:Times-Roman"
               x="0 4.9573398 8.4960203 12.0347 14.68871 19.773569 23.75857 26.41258 30.397579 34.38258 37.036591 40.575272 46.775928 52.976589 55.192249 59.17725"
               y="0"
               sodipodi:role="line"
               id="tspan5521">Yearsprogramming</tspan></text>
</g><g
           id="g5523"
           transform="matrix(1.00028,0,0,1.00028,72,720)"><path
             d="m 89.68,-9.49 0,8.96"
             style="fill:none;stroke:#000000;stroke-width:0.40000001;stroke-linecap:butt;stroke-linejoin:miter;stroke-miterlimit:10;stroke-opacity:1;stroke-dasharray:none"
             id="path5525"
             inkscape:connector-curvature="0" /></g><g
           id="g5527"
           transform="matrix(1.00028,0,0,1.00028,72,720)"><text
             transform="matrix(1,0,0,-1,99.15,-6.8)"
             id="text5529"><tspan
               style="font-size:7.96999979px;font-variant:normal;font-weight:normal;writing-mode:lr-tb;fill:#000000;fill-opacity:1;fill-rule:nonzero;stroke:none;font-family:Times New Roman;-inkscape-font-specification:Times-Roman"
               x="0 3.9849999 7.9699998 9.9624996"
               y="0"
               sodipodi:role="line"
               id="tspan5531">11.7</tspan></text>
</g><g
           id="g5533"
           transform="matrix(1.00028,0,0,1.00028,72,720)"><path
             d="m 122.57,-9.49 0,8.96"
             style="fill:none;stroke:#000000;stroke-width:0.40000001;stroke-linecap:butt;stroke-linejoin:miter;stroke-miterlimit:10;stroke-opacity:1;stroke-dasharray:none"
             id="path5535"
             inkscape:connector-curvature="0" /></g><g
           id="g5537"
           transform="matrix(1.00028,0,0,1.00028,72,720)"><text
             transform="matrix(1,0,0,-1,131.24,-6.8)"
             id="text5539"><tspan
               style="font-size:7.96999979px;font-variant:normal;font-weight:normal;writing-mode:lr-tb;fill:#000000;fill-opacity:1;fill-rule:nonzero;stroke:none;font-family:Times New Roman;-inkscape-font-specification:Times-Roman"
               x="0 3.9849999 5.9775"
               y="0"
               sodipodi:role="line"
               id="tspan5541">5.0</tspan></text>
</g><g
           id="g5543"
           transform="matrix(1.00028,0,0,1.00028,72,720)"><path
             d="m 149.87,-9.49 0,8.96"
             style="fill:none;stroke:#000000;stroke-width:0.40000001;stroke-linecap:butt;stroke-linejoin:miter;stroke-miterlimit:10;stroke-opacity:1;stroke-dasharray:none"
             id="path5545"
             inkscape:connector-curvature="0" /></g><g
           id="g5547"
           transform="matrix(1.00028,0,0,1.00028,72,720)"><text
             transform="matrix(1,0,0,-1,161.89,-6.8)"
             id="text5549"><tspan
               style="font-size:7.96999979px;font-variant:normal;font-weight:normal;writing-mode:lr-tb;fill:#000000;fill-opacity:1;fill-rule:nonzero;stroke:none;font-family:Times New Roman;-inkscape-font-specification:Times-Roman"
               x="0"
               y="0"
               id="tspan5551">4</tspan></text>
</g><g
           id="g5553"
           transform="matrix(1.00028,0,0,1.00028,72,720)"><path
             d="m 177.89,-9.49 0,8.96"
             style="fill:none;stroke:#000000;stroke-width:0.40000001;stroke-linecap:butt;stroke-linejoin:miter;stroke-miterlimit:10;stroke-opacity:1;stroke-dasharray:none"
             id="path5555"
             inkscape:connector-curvature="0" /></g><g
           id="g5557"
           transform="matrix(1.00028,0,0,1.00028,72,720)"><text
             transform="matrix(1,0,0,-1,188.95,-6.8)"
             id="text5559"><tspan
               style="font-size:7.96999979px;font-variant:normal;font-weight:normal;writing-mode:lr-tb;fill:#000000;fill-opacity:1;fill-rule:nonzero;stroke:none;font-family:Times New Roman;-inkscape-font-specification:Times-Roman"
               x="0 3.9849999"
               y="0"
               sodipodi:role="line"
               id="tspan5561">23</tspan></text>
</g><g
           id="g5563"
           transform="matrix(1.00028,0,0,1.00028,72,720)"><path
             d="m 207.98,-9.49 0,8.96"
             style="fill:none;stroke:#000000;stroke-width:0.40000001;stroke-linecap:butt;stroke-linejoin:miter;stroke-miterlimit:10;stroke-opacity:1;stroke-dasharray:none"
             id="path5565"
             inkscape:connector-curvature="0" /></g><g
           id="g5567"
           transform="matrix(1.00028,0,0,1.00028,72,720)"><path
             d="m -5.34,-9.69 213.32,0"
             style="fill:none;stroke:#000000;stroke-width:0.40000001;stroke-linecap:butt;stroke-linejoin:miter;stroke-miterlimit:10;stroke-opacity:1;stroke-dasharray:none"
             id="path5569"
             inkscape:connector-curvature="0" /></g><g
           id="g5571"
           transform="matrix(1.00028,0,0,1.00028,72,720)"><path
             d="m -5.34,-18.85 0,8.96"
             style="fill:none;stroke:#000000;stroke-width:0.40000001;stroke-linecap:butt;stroke-linejoin:miter;stroke-miterlimit:10;stroke-opacity:1;stroke-dasharray:none"
             id="path5573"
             inkscape:connector-curvature="0" /></g><g
           id="g5575"
           transform="matrix(1.00028,0,0,1.00028,72,720)"><text
             transform="matrix(1,0,0,-1,0.04,-16.16)"
             id="text5577"><tspan
               style="font-size:7.96999979px;font-variant:normal;font-weight:normal;writing-mode:lr-tb;fill:#000000;fill-opacity:1;fill-rule:nonzero;stroke:none;font-family:Times New Roman;-inkscape-font-specification:Times-Roman"
               x="0 4.9573398 8.4960203 12.0347 14.68871 19.773569 22.873899 26.26115 30.0469 35.57011 39.555111 42.209122 46.194118 50.179119 52.83313 56.371811 62.572472 68.773132 70.988792 74.973793"
               y="0"
               sodipodi:role="line"
               id="tspan5579">YearsJavaprogramming</tspan></text>
</g><g
           id="g5581"
           transform="matrix(1.00028,0,0,1.00028,72,720)"><path
             d="m 89.68,-18.85 0,8.96"
             style="fill:none;stroke:#000000;stroke-width:0.40000001;stroke-linecap:butt;stroke-linejoin:miter;stroke-miterlimit:10;stroke-opacity:1;stroke-dasharray:none"
             id="path5583"
             inkscape:connector-curvature="0" /></g><g
           id="g5585"
           transform="matrix(1.00028,0,0,1.00028,72,720)"><text
             transform="matrix(1,0,0,-1,103.14,-16.16)"
             id="text5587"><tspan
               style="font-size:7.96999979px;font-variant:normal;font-weight:normal;writing-mode:lr-tb;fill:#000000;fill-opacity:1;fill-rule:nonzero;stroke:none;font-family:Times New Roman;-inkscape-font-specification:Times-Roman"
               x="0 3.9849999 5.9775"
               y="0"
               sodipodi:role="line"
               id="tspan5589">3.6</tspan></text>
</g><g
           id="g5591"
           transform="matrix(1.00028,0,0,1.00028,72,720)"><path
             d="m 122.57,-18.85 0,8.96"
             style="fill:none;stroke:#000000;stroke-width:0.40000001;stroke-linecap:butt;stroke-linejoin:miter;stroke-miterlimit:10;stroke-opacity:1;stroke-dasharray:none"
             id="path5593"
             inkscape:connector-curvature="0" /></g><g
           id="g5595"
           transform="matrix(1.00028,0,0,1.00028,72,720)"><text
             transform="matrix(1,0,0,-1,131.24,-16.16)"
             id="text5597"><tspan
               style="font-size:7.96999979px;font-variant:normal;font-weight:normal;writing-mode:lr-tb;fill:#000000;fill-opacity:1;fill-rule:nonzero;stroke:none;font-family:Times New Roman;-inkscape-font-specification:Times-Roman"
               x="0 3.9849999 5.9775"
               y="0"
               sodipodi:role="line"
               id="tspan5599">1.5</tspan></text>
</g><g
           id="g5601"
           transform="matrix(1.00028,0,0,1.00028,72,720)"><path
             d="m 149.87,-18.85 0,8.96"
             style="fill:none;stroke:#000000;stroke-width:0.40000001;stroke-linecap:butt;stroke-linejoin:miter;stroke-miterlimit:10;stroke-opacity:1;stroke-dasharray:none"
             id="path5603"
             inkscape:connector-curvature="0" /></g><g
           id="g5605"
           transform="matrix(1.00028,0,0,1.00028,72,720)"><text
             transform="matrix(1,0,0,-1,161.89,-16.16)"
             id="text5607"><tspan
               style="font-size:7.96999979px;font-variant:normal;font-weight:normal;writing-mode:lr-tb;fill:#000000;fill-opacity:1;fill-rule:nonzero;stroke:none;font-family:Times New Roman;-inkscape-font-specification:Times-Roman"
               x="0"
               y="0"
               id="tspan5609">1</tspan></text>
</g><g
           id="g5611"
           transform="matrix(1.00028,0,0,1.00028,72,720)"><path
             d="m 177.89,-18.85 0,8.96"
             style="fill:none;stroke:#000000;stroke-width:0.40000001;stroke-linecap:butt;stroke-linejoin:miter;stroke-miterlimit:10;stroke-opacity:1;stroke-dasharray:none"
             id="path5613"
             inkscape:connector-curvature="0" /></g><g
           id="g5615"
           transform="matrix(1.00028,0,0,1.00028,72,720)"><text
             transform="matrix(1,0,0,-1,192.94,-16.16)"
             id="text5617"><tspan
               style="font-size:7.96999979px;font-variant:normal;font-weight:normal;writing-mode:lr-tb;fill:#000000;fill-opacity:1;fill-rule:nonzero;stroke:none;font-family:Times New Roman;-inkscape-font-specification:Times-Roman"
               x="0"
               y="0"
               id="tspan5619">7</tspan></text>
</g><g
           id="g5621"
           transform="matrix(1.00028,0,0,1.00028,72,720)"><path
             d="m 207.98,-18.85 0,8.96"
             style="fill:none;stroke:#000000;stroke-width:0.40000001;stroke-linecap:butt;stroke-linejoin:miter;stroke-miterlimit:10;stroke-opacity:1;stroke-dasharray:none"
             id="path5623"
             inkscape:connector-curvature="0" /></g><g
           id="g5625"
           transform="matrix(1.00028,0,0,1.00028,72,720)"><path
             d="m -5.34,-19.05 213.32,0"
             style="fill:none;stroke:#000000;stroke-width:0.40000001;stroke-linecap:butt;stroke-linejoin:miter;stroke-miterlimit:10;stroke-opacity:1;stroke-dasharray:none"
             id="path5627"
             inkscape:connector-curvature="0" /></g><g
           id="g5629"
           transform="matrix(1.00028,0,0,1.00028,72,720)"><path
             d="m 89.68,-28.42 118.3,0"
             style="fill:none;stroke:#000000;stroke-width:0.40000001;stroke-linecap:butt;stroke-linejoin:miter;stroke-miterlimit:10;stroke-opacity:1;stroke-dasharray:none"
             id="path5631"
             inkscape:connector-curvature="0" /></g><g
           id="g5633"
           transform="matrix(1.00028,0,0,1.00028,72,720)"><path
             d="m 89.68,-37.18 0,8.96"
             style="fill:none;stroke:#000000;stroke-width:0.40000001;stroke-linecap:butt;stroke-linejoin:miter;stroke-miterlimit:10;stroke-opacity:1;stroke-dasharray:none"
             id="path5635"
             inkscape:connector-curvature="0" /></g><g
           id="g5637"
           transform="matrix(1.00028,0,0,1.00028,72,720)"><text
             transform="matrix(1,0,0,-1,95.06,-34.49)"
             id="text5639"><tspan
               style="font-size:7.96999979px;font-variant:normal;font-weight:normal;writing-mode:lr-tb;fill:#000000;fill-opacity:1;fill-rule:nonzero;stroke:none;font-family:Times New Roman;-inkscape-font-specification:Times-Roman"
               x="0 4.4313202 7.08533 10.62401 14.60901 18.594009 22.13269 26.117689 29.65637 31.87203 35.410709"
               y="0"
               sodipodi:role="line"
               id="tspan5641">Frequencies</tspan></text>
</g><g
           id="g5643"
           transform="matrix(1.00028,0,0,1.00028,72,720)"><path
             d="m 207.98,-37.18 0,8.96"
             style="fill:none;stroke:#000000;stroke-width:0.40000001;stroke-linecap:butt;stroke-linejoin:miter;stroke-miterlimit:10;stroke-opacity:1;stroke-dasharray:none"
             id="path5645"
             inkscape:connector-curvature="0" /></g><g
           id="g5647"
           transform="matrix(1.00028,0,0,1.00028,72,720)"><path
             d="m -5.34,-37.38 213.32,0"
             style="fill:none;stroke:#000000;stroke-width:0.40000001;stroke-linecap:butt;stroke-linejoin:miter;stroke-miterlimit:10;stroke-opacity:1;stroke-dasharray:none"
             id="path5649"
             inkscape:connector-curvature="0" /></g><g
           id="g5651"
           transform="matrix(1.00028,0,0,1.00028,72,720)"><path
             d="m -5.34,-46.54 0,8.96"
             style="fill:none;stroke:#000000;stroke-width:0.40000001;stroke-linecap:butt;stroke-linejoin:miter;stroke-miterlimit:10;stroke-opacity:1;stroke-dasharray:none"
             id="path5653"
             inkscape:connector-curvature="0" /></g><g
           id="g5655"
           transform="matrix(1.00028,0,0,1.00028,72,720)"><text
             transform="matrix(1,0,0,-1,0.04,-43.85)"
             id="text5657"><tspan
               style="font-size:7.96999979px;font-variant:normal;font-weight:normal;writing-mode:lr-tb;fill:#000000;fill-opacity:1;fill-rule:nonzero;stroke:none;font-family:Times New Roman;-inkscape-font-specification:Times-Roman"
               x="0 5.7543402 8.8546696 12.83967 16.378349 20.578541 24.11722 27.791389 31.77639 33.99205 36.646061 40.631062 44.616058 50.816719 54.3554 58.340401"
               y="0"
               sodipodi:role="line"
               id="tspan5659">Usualenvironment</tspan></text>
</g><g
           id="g5661"
           transform="matrix(1.00028,0,0,1.00028,72,720)"><path
             d="m 89.68,-46.54 0,8.96"
             style="fill:none;stroke:#000000;stroke-width:0.40000001;stroke-linecap:butt;stroke-linejoin:miter;stroke-miterlimit:10;stroke-opacity:1;stroke-dasharray:none"
             id="path5663"
             inkscape:connector-curvature="0" /></g><g
           id="g5665"
           transform="matrix(1.00028,0,0,1.00028,72,720)"><text
             transform="matrix(1,0,0,-1,95.06,-43.85)"
             id="text5667"><tspan
               style="font-size:7.96999979px;font-variant:normal;font-weight:normal;writing-mode:lr-tb;fill:#000000;fill-opacity:1;fill-rule:nonzero;stroke:none;font-family:Times New Roman;-inkscape-font-specification:Times-Roman"
               x="0 5.7543402 9.7393398 11.955 17.932501 21.9175 25.9025 32.541512 36.749668 43.962521 46.178181 52.147709 56.13271 60.11771 66.756721 70.964882 74.949883 78.934883 81.150543 87.128036 91.113037 95.098038"
               y="0"
               sodipodi:role="line"
               id="tspan5669">Unix59%;Win13%;both29%</tspan></text>
</g><g
           id="g5671"
           transform="matrix(1.00028,0,0,1.00028,72,720)"><path
             d="m 207.98,-46.54 0,8.96"
             style="fill:none;stroke:#000000;stroke-width:0.40000001;stroke-linecap:butt;stroke-linejoin:miter;stroke-miterlimit:10;stroke-opacity:1;stroke-dasharray:none"
             id="path5673"
             inkscape:connector-curvature="0" /></g><g
           id="g5675"
           transform="matrix(1.00028,0,0,1.00028,72,720)"><path
             d="m -5.34,-46.74 213.32,0"
             style="fill:none;stroke:#000000;stroke-width:0.40000001;stroke-linecap:butt;stroke-linejoin:miter;stroke-miterlimit:10;stroke-opacity:1;stroke-dasharray:none"
             id="path5677"
             inkscape:connector-curvature="0" /></g><g
           id="g5679"
           transform="matrix(1.00028,0,0,1.00028,72,720)"><path
             d="m -5.34,-55.9 0,8.96"
             style="fill:none;stroke:#000000;stroke-width:0.40000001;stroke-linecap:butt;stroke-linejoin:miter;stroke-miterlimit:10;stroke-opacity:1;stroke-dasharray:none"
             id="path5681"
             inkscape:connector-curvature="0" /></g><g
           id="g5683"
           transform="matrix(1.00028,0,0,1.00028,72,720)"><text
             transform="matrix(1,0,0,-1,0.04,-53.22)"
             id="text5685"><tspan
               style="font-size:7.96999979px;font-variant:normal;font-weight:normal;writing-mode:lr-tb;fill:#000000;fill-opacity:1;fill-rule:nonzero;stroke:none;font-family:Times New Roman;-inkscape-font-specification:Times-Roman"
               x="0 7.5236802 10.17769 12.39335 14.60901 18.14769 23.23255 26.771231 29.871559 32.971889 36.510571 39.164581 41.380241 46.473068 48.688728 54.666229 58.20491 62.189911 66.174911"
               y="0"
               sodipodi:role="line"
               id="tspan5687">Writesassertsincode</tspan></text>
</g><g
           id="g5689"
           transform="matrix(1.00028,0,0,1.00028,72,720)"><path
             d="m 89.68,-55.9 0,8.96"
             style="fill:none;stroke:#000000;stroke-width:0.40000001;stroke-linecap:butt;stroke-linejoin:miter;stroke-miterlimit:10;stroke-opacity:1;stroke-dasharray:none"
             id="path5691"
             inkscape:connector-curvature="0" /></g><g
           id="g5693"
           transform="matrix(1.00028,0,0,1.00028,72,720)"><text
             transform="matrix(1,0,0,-1,95.06,-53.22)"
             id="text5695"><tspan
               style="font-size:7.96999979px;font-variant:normal;font-weight:normal;writing-mode:lr-tb;fill:#000000;fill-opacity:1;fill-rule:nonzero;stroke:none;font-family:Times New Roman;-inkscape-font-specification:Times-Roman"
               x="0 3.5386801 7.5236802 10.17769 12.39335 15.93203 19.91703 25.44821 29.43321 33.418209 40.05722 44.265381 46.481041 50.019718 53.120049 58.212879 60.86689 63.520901 67.059578 71.044579 75.029579 78.56826 82.553261 84.768921 86.984581 92.962082 96.947083 100.93208"
               y="0"
               sodipodi:role="line"
               id="tspan5697">“often”30%;lessfrequently70%</tspan></text>
</g><g
           id="g5699"
           transform="matrix(1.00028,0,0,1.00028,72,720)"><path
             d="m 207.98,-55.9 0,8.96"
             style="fill:none;stroke:#000000;stroke-width:0.40000001;stroke-linecap:butt;stroke-linejoin:miter;stroke-miterlimit:10;stroke-opacity:1;stroke-dasharray:none"
             id="path5701"
             inkscape:connector-curvature="0" /></g><g
           id="g5703"
           transform="matrix(1.00028,0,0,1.00028,72,720)"><path
             d="m -5.34,-56.1 213.32,0"
             style="fill:none;stroke:#000000;stroke-width:0.40000001;stroke-linecap:butt;stroke-linejoin:miter;stroke-miterlimit:10;stroke-opacity:1;stroke-dasharray:none"
             id="path5705"
             inkscape:connector-curvature="0" /></g><g
           id="g5707"
           transform="matrix(1.00028,0,0,1.00028,72,720)"><path
             d="m -5.34,-65.27 0,8.97"
             style="fill:none;stroke:#000000;stroke-width:0.40000001;stroke-linecap:butt;stroke-linejoin:miter;stroke-miterlimit:10;stroke-opacity:1;stroke-dasharray:none"
             id="path5709"
             inkscape:connector-curvature="0" /></g><g
           id="g5711"
           transform="matrix(1.00028,0,0,1.00028,72,720)"><text
             transform="matrix(1,0,0,-1,17.97,-62.58)"
             id="text5713"><tspan
               style="font-size:7.96999979px;font-variant:normal;font-weight:normal;writing-mode:lr-tb;fill:#000000;fill-opacity:1;fill-rule:nonzero;stroke:none;font-family:CMMI8;-inkscape-font-specification:CMMI8"
               x="0 3.754667 7.5173039"
               y="0"
               sodipodi:role="line"
               id="tspan5715">...</tspan></text>
</g><g
           id="g5717"
           transform="matrix(1.00028,0,0,1.00028,72,720)"><text
             transform="matrix(1,0,0,-1,31.25,-62.58)"
             id="text5719"><tspan
               style="font-size:7.96999979px;font-variant:normal;font-weight:normal;writing-mode:lr-tb;fill:#000000;fill-opacity:1;fill-rule:nonzero;stroke:none;font-family:Times New Roman;-inkscape-font-specification:Times-Roman"
               x="0 2.2156601 8.1851902 11.72387 15.70887 21.909531 28.110189 31.64887 35.633869 37.849529"
               y="0"
               sodipodi:role="line"
               id="tspan5721">incomments</tspan></text>
</g><g
           id="g5723"
           transform="matrix(1.00028,0,0,1.00028,72,720)"><path
             d="m 89.68,-65.27 0,8.97"
             style="fill:none;stroke:#000000;stroke-width:0.40000001;stroke-linecap:butt;stroke-linejoin:miter;stroke-miterlimit:10;stroke-opacity:1;stroke-dasharray:none"
             id="path5725"
             inkscape:connector-curvature="0" /></g><g
           id="g5727"
           transform="matrix(1.00028,0,0,1.00028,72,720)"><text
             transform="matrix(1,0,0,-1,95.06,-62.58)"
             id="text5729"><tspan
               style="font-size:7.96999979px;font-variant:normal;font-weight:normal;writing-mode:lr-tb;fill:#000000;fill-opacity:1;fill-rule:nonzero;stroke:none;font-family:Times New Roman;-inkscape-font-specification:Times-Roman"
               x="0 3.5386801 7.5236802 10.17769 12.39335 15.93203 19.91703 25.44821 29.43321 33.418209 40.05722 44.265381 46.481041 50.019718 53.120049 58.212879 60.86689 63.520901 67.059578 71.044579 75.029579 78.56826 82.553261 84.768921 86.984581 92.962082 96.947083 100.93208"
               y="0"
               sodipodi:role="line"
               id="tspan5731">“often”23%;lessfrequently77%</tspan></text>
</g><g
           id="g5733"
           transform="matrix(1.00028,0,0,1.00028,72,720)"><path
             d="m 207.98,-65.27 0,8.97"
             style="fill:none;stroke:#000000;stroke-width:0.40000001;stroke-linecap:butt;stroke-linejoin:miter;stroke-miterlimit:10;stroke-opacity:1;stroke-dasharray:none"
             id="path5735"
             inkscape:connector-curvature="0" /></g><g
           id="g5737"
           transform="matrix(1.00028,0,0,1.00028,72,720)"><path
             d="m -5.34,-65.47 213.32,0"
             style="fill:none;stroke:#000000;stroke-width:0.40000001;stroke-linecap:butt;stroke-linejoin:miter;stroke-miterlimit:10;stroke-opacity:1;stroke-dasharray:none"
             id="path5739"
             inkscape:connector-curvature="0" /></g><g
           id="g5741"
           transform="matrix(1.00028,0,0,1.00028,72,720)"><path
             d="m -5.34,-74.63 0,8.96"
             style="fill:none;stroke:#000000;stroke-width:0.40000001;stroke-linecap:butt;stroke-linejoin:miter;stroke-miterlimit:10;stroke-opacity:1;stroke-dasharray:none"
             id="path5743"
             inkscape:connector-curvature="0" /></g><g
           id="g5745"
           transform="matrix(1.00028,0,0,1.00028,72,720)"><text
             transform="matrix(1,0,0,-1,0.04,-71.94)"
             id="text5747"><tspan
               style="font-size:7.96999979px;font-variant:normal;font-weight:normal;writing-mode:lr-tb;fill:#000000;fill-opacity:1;fill-rule:nonzero;stroke:none;font-family:Times New Roman;-inkscape-font-specification:Times-Roman"
               x="0 5.7543402 9.2930202 13.27802 17.26302 20.801701"
               y="0"
               sodipodi:role="line"
               id="tspan5749">Gender</tspan></text>
</g><g
           id="g5751"
           transform="matrix(1.00028,0,0,1.00028,72,720)"><path
             d="m 89.68,-74.63 0,8.96"
             style="fill:none;stroke:#000000;stroke-width:0.40000001;stroke-linecap:butt;stroke-linejoin:miter;stroke-miterlimit:10;stroke-opacity:1;stroke-dasharray:none"
             id="path5753"
             inkscape:connector-curvature="0" /></g><g
           id="g5755"
           transform="matrix(1.00028,0,0,1.00028,72,720)"><text
             transform="matrix(1,0,0,-1,95.06,-71.94)"
             id="text5757"><tspan
               style="font-size:7.96999979px;font-variant:normal;font-weight:normal;writing-mode:lr-tb;fill:#000000;fill-opacity:1;fill-rule:nonzero;stroke:none;font-family:Times New Roman;-inkscape-font-specification:Times-Roman"
               x="0 6.2006602 9.7393398 11.955 17.486179 21.47118 25.456181 32.095188 36.303349 38.957359 42.49604 48.696701 52.235378 54.451038 59.98222 63.96722 67.952217"
               y="0"
               sodipodi:role="line"
               id="tspan5759">male89%;female11%</tspan></text>
</g><g
           id="g5761"
           transform="matrix(1.00028,0,0,1.00028,72,720)"><path
             d="m 207.98,-74.63 0,8.96"
             style="fill:none;stroke:#000000;stroke-width:0.40000001;stroke-linecap:butt;stroke-linejoin:miter;stroke-miterlimit:10;stroke-opacity:1;stroke-dasharray:none"
             id="path5763"
             inkscape:connector-curvature="0" /></g><g
           id="g5765"
           transform="matrix(1.00028,0,0,1.00028,72,720)"><path
             d="m -5.34,-74.83 213.32,0"
             style="fill:none;stroke:#000000;stroke-width:0.40000001;stroke-linecap:butt;stroke-linejoin:miter;stroke-miterlimit:10;stroke-opacity:1;stroke-dasharray:none"
             id="path5767"
             inkscape:connector-curvature="0" /></g><g
           id="g5769"
           transform="matrix(1.00028,0,0,1.00028,72,720)"><text
             transform="matrix(1,0,0,-1,-14.23,-91.46)"
             id="text5771"><tspan
               style="font-size:8.96000004px;font-variant:normal;font-weight:normal;writing-mode:lr-tb;fill:#000000;fill-opacity:1;fill-rule:nonzero;stroke:none;font-family:Times New Roman;-inkscape-font-specification:Times-Roman"
               x="0 4.98176 7.47264 11.95264 16.43264 19.416321 25.625601 30.1056"
               y="0"
               sodipodi:role="line"
               id="tspan5773">Figure3:</tspan></text>
</g><g
           id="g5775"
           transform="matrix(1.00028,0,0,1.00028,72,720)"><text
             transform="matrix(1,0,0,-1,21.17,-91.46)"
             id="text5777"><tspan
               style="font-size:7.96999979px;font-variant:normal;font-weight:normal;writing-mode:lr-tb;fill:#000000;fill-opacity:1;fill-rule:nonzero;stroke:none;font-family:Times New Roman;-inkscape-font-specification:Times-Roman"
               x="0 4.4313202 6.6469798 10.63198 14.61698 20.58651 24.57151 28.110189 30.7642 32.979858 35.195518 38.7342 40.94986 44.93486 48.473541 52.458542 56.666698 60.651699 64.190376 70.391037 74.376038 78.361038 81.015053 84.553726 88.538727 92.523727 94.739388 98.278069 101.3784 105.8416 109.38028 115.13462 118.48202 122.46702 127.99023 130.20589 135.29872 138.39905 140.61472 144.1534 148.1384 152.12338 155.66206 158.31609 164.29358 168.27858 171.62598 175.61098 177.82664 181.36533 183.58098 185.79665 189.78165 193.76665"
               y="0"
               sodipodi:role="line"
               id="tspan5779">Studyparticipantdemographics.“Dev”isstandarddeviation.</tspan></text>
</g></g></g></g></svg>