<?xml version="1.0" encoding="UTF-8" standalone="no"?>
<!-- Created with Inkscape (http://www.inkscape.org/) -->

<svg
   xmlns:dc="http://purl.org/dc/elements/1.1/"
   xmlns:cc="http://creativecommons.org/ns#"
   xmlns:rdf="http://www.w3.org/1999/02/22-rdf-syntax-ns#"
   xmlns:svg="http://www.w3.org/2000/svg"
   xmlns="http://www.w3.org/2000/svg"
   xmlns:sodipodi="http://sodipodi.sourceforge.net/DTD/sodipodi-0.dtd"
   xmlns:inkscape="http://www.inkscape.org/namespaces/inkscape"
   id="svg3004"
   version="1.1"
   inkscape:version="0.48.4 r9939"
   width="916.09784"
   height="377.72858"
   xml:space="preserve"
   sodipodi:docname="selected-programs.svg"><metadata
     id="metadata3010"><rdf:RDF><cc:Work
         rdf:about=""><dc:format>image/svg+xml</dc:format><dc:type
           rdf:resource="http://purl.org/dc/dcmitype/StillImage" /><dc:title></dc:title></cc:Work></rdf:RDF></metadata><defs
     id="defs3008"><clipPath
       clipPathUnits="userSpaceOnUse"
       id="clipPath3020"><path
         d="M 0,0 612,0 612,792 0,792 0,0 z"
         id="path3022"
         inkscape:connector-curvature="0" /></clipPath></defs><sodipodi:namedview
     pagecolor="#ffffff"
     bordercolor="#666666"
     borderopacity="1"
     objecttolerance="10"
     gridtolerance="10"
     guidetolerance="10"
     inkscape:pageopacity="0"
     inkscape:pageshadow="2"
     inkscape:window-width="1652"
     inkscape:window-height="1022"
     id="namedview3006"
     showgrid="false"
     fit-margin-left="10"
     fit-margin-right="10"
     fit-margin-bottom="10"
     fit-margin-top="10"
     borderlayer="true"
     inkscape:zoom="1.6970563"
     inkscape:cx="240.65473"
     inkscape:cy="113.40623"
     inkscape:window-x="10"
     inkscape:window-y="10"
     inkscape:window-maximized="0"
     inkscape:current-layer="g3018"
     showborder="true"
     inkscape:showpageshadow="true" /><g
     id="g3012"
     inkscape:groupmode="layer"
     inkscape:label="fevan"
     transform="matrix(1.25,0,0,-1.25,-120.28537,1090.2696)"><g
       id="g3014" /><g
       id="g3016"
       transform="matrix(3,0,0,3,-925.33487,-1442.286)"><g
         id="g3018"
         clip-path="url(#clipPath3020)"><g
           id="g3390"
           transform="matrix(1.00028,0,0,1.00028,98.398658,750.6413)"
           clip-path="none"><path
             d="m 272.65,18 183.22,0"
             style="fill:none;stroke:#000000;stroke-width:0.40000001;stroke-linecap:butt;stroke-linejoin:miter;stroke-miterlimit:10;stroke-opacity:1;stroke-dasharray:none"
             id="path3392"
             inkscape:connector-curvature="0" /></g><g
           id="g3394"
           transform="matrix(1.00028,0,0,1.00028,98.398658,750.6413)"
           clip-path="none"><path
             d="m 272.65,8.83 0,8.97"
             style="fill:none;stroke:#000000;stroke-width:0.40000001;stroke-linecap:butt;stroke-linejoin:miter;stroke-miterlimit:10;stroke-opacity:1;stroke-dasharray:none"
             id="path3396"
             inkscape:connector-curvature="0" /></g><g
           id="g3398"
           transform="matrix(1.00028,0,0,1.00028,98.398658,750.6413)"
           clip-path="none"><path
             d="m 321.65,8.83 0,8.97"
             style="fill:none;stroke:#000000;stroke-width:0.40000001;stroke-linecap:butt;stroke-linejoin:miter;stroke-miterlimit:10;stroke-opacity:1;stroke-dasharray:none"
             id="path3400"
             inkscape:connector-curvature="0" /></g><g
           id="g3402"
           transform="matrix(1.00028,0,0,1.00028,98.398658,750.6413)"
           clip-path="none"><path
             d="m 360.3,8.83 0,8.97"
             style="fill:none;stroke:#000000;stroke-width:0.40000001;stroke-linecap:butt;stroke-linejoin:miter;stroke-miterlimit:10;stroke-opacity:1;stroke-dasharray:none"
             id="path3404"
             inkscape:connector-curvature="0" /></g><g
           id="g3406"
           transform="matrix(1.00028,0,0,1.00028,98.398658,750.6413)"
           clip-path="none"><path
             d="m 360.3,8.83 0,8.97"
             style="fill:none;stroke:#000000;stroke-width:0.40000001;stroke-linecap:butt;stroke-linejoin:miter;stroke-miterlimit:10;stroke-opacity:1;stroke-dasharray:none"
             id="path3408"
             inkscape:connector-curvature="0" /></g><g
           id="g3410"
           transform="matrix(1.00028,0,0,1.00028,98.398658,750.6413)"
           clip-path="none"><text
             transform="matrix(1,0,0,-1,368.95,11.52)"
             id="text3412"><tspan
               style="font-size:7.96999979px;font-variant:normal;font-weight:normal;writing-mode:lr-tb;fill:#000000;fill-opacity:1;fill-rule:nonzero;stroke:none;font-family:Times New Roman;-inkscape-font-specification:Times-Roman"
               x="0 5.7543402 11.07033 16.824671 24.13316 29.002831 34.757172"
               y="0"
               sodipodi:role="line"
               id="tspan3414">NCNBLOC</tspan></text>
</g><g
           id="g3416"
           transform="matrix(1.00028,0,0,1.00028,98.398658,750.6413)"
           clip-path="none"><path
             d="m 417.67,8.83 0,8.97"
             style="fill:none;stroke:#000000;stroke-width:0.40000001;stroke-linecap:butt;stroke-linejoin:miter;stroke-miterlimit:10;stroke-opacity:1;stroke-dasharray:none"
             id="path3418"
             inkscape:connector-curvature="0" /></g><g
           id="g3420"
           transform="matrix(1.00028,0,0,1.00028,98.398658,750.6413)"
           clip-path="none"><text
             transform="matrix(1,0,0,-1,423.05,11.52)"
             id="text3422"><tspan
               style="font-size:7.96999979px;font-variant:normal;font-weight:normal;writing-mode:lr-tb;fill:#000000;fill-opacity:1;fill-rule:nonzero;stroke:none;font-family:Times New Roman;-inkscape-font-specification:Times-Roman"
               x="0 7.08533 9.3009901 13.28599 15.50165 21.702311 25.24099"
               y="0"
               sodipodi:role="line"
               id="tspan3424">Minimal</tspan></text>
</g><g
           id="g3426"
           transform="matrix(1.00028,0,0,1.00028,98.398658,750.6413)"
           clip-path="none"><path
             d="m 455.87,8.83 0,8.97"
             style="fill:none;stroke:#000000;stroke-width:0.40000001;stroke-linecap:butt;stroke-linejoin:miter;stroke-miterlimit:10;stroke-opacity:1;stroke-dasharray:none"
             id="path3428"
             inkscape:connector-curvature="0" /></g><g
           id="g3430"
           transform="matrix(1.00028,0,0,1.00028,98.398658,750.6413)"
           clip-path="none"><path
             d="m 360.3,8.64 57.37,0"
             style="fill:none;stroke:#000000;stroke-width:0.40000001;stroke-linecap:butt;stroke-linejoin:miter;stroke-miterlimit:10;stroke-opacity:1;stroke-dasharray:none"
             id="path3432"
             inkscape:connector-curvature="0" /></g><g
           id="g3434"
           transform="matrix(1.00028,0,0,1.00028,98.398658,750.6413)"
           clip-path="none"><path
             d="m 272.65,-0.13 0,8.96"
             style="fill:none;stroke:#000000;stroke-width:0.40000001;stroke-linecap:butt;stroke-linejoin:miter;stroke-miterlimit:10;stroke-opacity:1;stroke-dasharray:none"
             id="path3436"
             inkscape:connector-curvature="0" /></g><g
           id="g3438"
           transform="matrix(1.00028,0,0,1.00028,98.398658,750.6413)"
           clip-path="none"><text
             transform="matrix(1,0,0,-1,278.03,2.56)"
             id="text3440"><tspan
               style="font-size:7.96999979px;font-variant:normal;font-weight:normal;writing-mode:lr-tb;fill:#000000;fill-opacity:1;fill-rule:nonzero;stroke:none;font-family:Times New Roman;-inkscape-font-specification:Times-Roman"
               x="0 4.4313202 7.08533 11.07033 15.05533 17.709339 21.24802"
               y="0"
               sodipodi:role="line"
               id="tspan3442">Program</tspan></text>
</g><g
           id="g3444"
           transform="matrix(1.00028,0,0,1.00028,98.398658,750.6413)"
           clip-path="none"><path
             d="m 321.65,-0.13 0,8.96"
             style="fill:none;stroke:#000000;stroke-width:0.40000001;stroke-linecap:butt;stroke-linejoin:miter;stroke-miterlimit:10;stroke-opacity:1;stroke-dasharray:none"
             id="path3446"
             inkscape:connector-curvature="0" /></g><g
           id="g3448"
           transform="matrix(1.00028,0,0,1.00028,98.398658,750.6413)"
           clip-path="none"><text
             transform="matrix(1,0,0,-1,327.03,2.56)"
             id="text3450"><tspan
               style="font-size:7.96999979px;font-variant:normal;font-weight:normal;writing-mode:lr-tb;fill:#000000;fill-opacity:1;fill-rule:nonzero;stroke:none;font-family:Times New Roman;-inkscape-font-specification:Times-Roman"
               x="0 7.08533 10.62401 12.83967 16.824671 20.809669 24.79467"
               y="0"
               sodipodi:role="line"
               id="tspan3452">Methods</tspan></text>
</g><g
           id="g3454"
           transform="matrix(1.00028,0,0,1.00028,98.398658,750.6413)"
           clip-path="none"><path
             d="m 360.3,-0.13 0,8.96"
             style="fill:none;stroke:#000000;stroke-width:0.40000001;stroke-linecap:butt;stroke-linejoin:miter;stroke-miterlimit:10;stroke-opacity:1;stroke-dasharray:none"
             id="path3456"
             inkscape:connector-curvature="0" /></g><g
           id="g3458"
           transform="matrix(1.00028,0,0,1.00028,98.398658,750.6413)"
           clip-path="none"><text
             transform="matrix(1,0,0,-1,365.68,2.56)"
             id="text3460"><tspan
               style="font-size:7.96999979px;font-variant:normal;font-weight:normal;writing-mode:lr-tb;fill:#000000;fill-opacity:1;fill-rule:nonzero;stroke:none;font-family:Times New Roman;-inkscape-font-specification:Times-Roman"
               x="0 5.7543402 11.50868"
               y="0"
               sodipodi:role="line"
               id="tspan3462">ADT</tspan></text>
</g><g
           id="g3464"
           transform="matrix(1.00028,0,0,1.00028,98.398658,750.6413)"
           clip-path="none"><path
             d="m 387.43,-0.13 0,8.96"
             style="fill:none;stroke:#000000;stroke-width:0.40000001;stroke-linecap:butt;stroke-linejoin:miter;stroke-miterlimit:10;stroke-opacity:1;stroke-dasharray:none"
             id="path3466"
             inkscape:connector-curvature="0" /></g><g
           id="g3468"
           transform="matrix(1.00028,0,0,1.00028,98.398658,750.6413)"
           clip-path="none"><text
             transform="matrix(1,0,0,-1,392.81,2.56)"
             id="text3470"><tspan
               style="font-size:7.96999979px;font-variant:normal;font-weight:normal;writing-mode:lr-tb;fill:#000000;fill-opacity:1;fill-rule:nonzero;stroke:none;font-family:Times New Roman;-inkscape-font-specification:Times-Roman"
               x="0 5.31599 7.5316501 9.7473097 13.28599 17.27099"
               y="0"
               sodipodi:role="line"
               id="tspan3472">Client</tspan></text>
</g><g
           id="g3474"
           transform="matrix(1.00028,0,0,1.00028,98.398658,750.6413)"
           clip-path="none"><path
             d="m 417.67,-0.13 0,8.96"
             style="fill:none;stroke:#000000;stroke-width:0.40000001;stroke-linecap:butt;stroke-linejoin:miter;stroke-miterlimit:10;stroke-opacity:1;stroke-dasharray:none"
             id="path3476"
             inkscape:connector-curvature="0" /></g><g
           id="g3478"
           transform="matrix(1.00028,0,0,1.00028,98.398658,750.6413)"
           clip-path="none"><text
             transform="matrix(1,0,0,-1,425.81,2.56)"
             id="text3480"><tspan
               style="font-size:7.96999979px;font-variant:normal;font-weight:normal;writing-mode:lr-tb;fill:#000000;fill-opacity:1;fill-rule:nonzero;stroke:none;font-family:Times New Roman;-inkscape-font-specification:Times-Roman"
               x="0 5.7543402 9.7393398 13.72434 17.709339 19.924999"
               y="0"
               sodipodi:role="line"
               id="tspan3482">Annot.</tspan></text>
</g><g
           id="g3484"
           transform="matrix(1.00028,0,0,1.00028,98.398658,750.6413)"
           clip-path="none"><path
             d="m 455.87,-0.13 0,8.96"
             style="fill:none;stroke:#000000;stroke-width:0.40000001;stroke-linecap:butt;stroke-linejoin:miter;stroke-miterlimit:10;stroke-opacity:1;stroke-dasharray:none"
             id="path3486"
             inkscape:connector-curvature="0" /></g><g
           id="g3488"
           transform="matrix(1.00028,0,0,1.00028,98.398658,750.6413)"
           clip-path="none"><path
             d="m 272.65,-0.33 183.22,0"
             style="fill:none;stroke:#000000;stroke-width:0.40000001;stroke-linecap:butt;stroke-linejoin:miter;stroke-miterlimit:10;stroke-opacity:1;stroke-dasharray:none"
             id="path3490"
             inkscape:connector-curvature="0" /></g><g
           id="g3492"
           transform="matrix(1.00028,0,0,1.00028,98.398658,750.6413)"
           clip-path="none"><path
             d="m 272.65,-9.49 0,8.96"
             style="fill:none;stroke:#000000;stroke-width:0.40000001;stroke-linecap:butt;stroke-linejoin:miter;stroke-miterlimit:10;stroke-opacity:1;stroke-dasharray:none"
             id="path3494"
             inkscape:connector-curvature="0" /></g><g
           id="g3496"
           transform="matrix(1.00028,0,0,1.00028,98.398658,749.0413)"
           clip-path="none"><g
             transform="matrix(1,0,0,-1,278.03,-6.8)"
             style=""
             id="text3498"><path
               d="m 0.60319823,0 0,-6.0397655 1.43210937,0 c 0.6589751,6.1e-6 1.1480192,0.1154568 1.4671337,0.3463526 0.3217019,0.2283127 0.562981,0.5746649 0.7238379,1.0390576 0.1608485,0.4644019 0.2412748,1.0144144 0.2412793,1.650039 -4.5e-6,0.6019034 -0.08562,1.1311607 -0.2568457,1.5877734 -0.1686401,0.4540211 -0.408622,0.80426488 -0.7199463,1.05073236 C 3.1794352,-0.12193672 2.6942827,0 2.0353076,0 L 0.60319823,0 m 0.78610347,-0.66546385 0.5253662,0 c 0.5318498,6.7e-7 0.9106319,-0.0946949 1.1363476,-0.28408691 0.2283041,-0.18939014 0.3904539,-0.45142434 0.4864502,-0.78610354 0.098584,-0.33727 0.1478772,-0.8016673 0.1478809,-1.3931933 -3.7e-6,-0.5785477 -0.057081,-1.023487 -0.1712305,-1.3348193 C 3.3999591,-4.7749902 3.236512,-5.0136749 3.0237743,-5.1797215 2.8110306,-5.3483523 2.4620841,-5.4326702 1.9769335,-5.4326756 l -0.5876318,0 0,4.76721175"
               style="font-size:7.96999979px;font-variant:normal;font-weight:normal;writing-mode:lr-tb;fill:#000000;fill-opacity:1;fill-rule:nonzero;stroke:none;font-family:Courier;-inkscape-font-specification:Courier"
               id="path5121" /><path
               d="m 6.6032695,0 0,-3.7437206 -1.2063964,0 0,-0.6031982 1.9302343,0 0,3.74372057 1.2102881,0 0,0.60319823 -1.934126,0 M 6.4826299,-5.9152342 c -1.7e-6,-0.1634412 0.055778,-0.2853779 0.1673389,-0.3658106 0.1115572,-0.08042 0.2166304,-0.1206332 0.3152197,-0.1206396 0.1011793,6.4e-6 0.2075497,0.04022 0.3191113,0.1206396 0.1115566,0.080433 0.1673362,0.2023694 0.1673389,0.3658106 -2.7e-6,0.1608586 -0.055782,0.2814981 -0.1673389,0.3619189 -0.1115616,0.080432 -0.217932,0.1206451 -0.3191113,0.1206397 -0.098589,5.4e-6 -0.2036625,-0.040208 -0.3152197,-0.1206397 -0.111561,-0.080421 -0.1673406,-0.2010603 -0.1673389,-0.3619189"
               style="font-size:7.96999979px;font-variant:normal;font-weight:normal;writing-mode:lr-tb;fill:#000000;fill-opacity:1;fill-rule:nonzero;stroke:none;font-family:Courier;-inkscape-font-specification:Courier"
               id="path5123" /><path
               d="m 10.217789,-0.22960449 0,-0.76664548 c 0.290572,0.18939207 0.598008,0.32300359 0.92231,0.40083495 0.324298,0.0752382 0.599304,0.11285692 0.825019,0.11285644 0.365808,4.8e-7 0.629139,-0.0583735 0.789995,-0.17512207 0.16085,-0.11934166 0.241276,-0.26722237 0.24128,-0.44364255 -4e-6,-0.1167468 -0.03762,-0.2166312 -0.112857,-0.2996533 -0.07524,-0.083019 -0.262037,-0.1854981 -0.56039,-0.3074365 l -0.249063,-0.1011817 -0.502017,-0.1984717 c -0.539636,-0.2101442 -0.879503,-0.4047241 -1.019599,-0.5837402 -0.142693,-0.1764165 -0.214039,-0.3917515 -0.214038,-0.6460058 -10e-7,-0.3580238 0.137502,-0.652488 0.41251,-0.8833935 0.277599,-0.2308974 0.72643,-0.3463481 1.346494,-0.3463526 0.464394,4.5e-6 0.904145,0.067459 1.319253,0.2023633 l 0,0.6576806 c -0.477374,-0.1712266 -0.926204,-0.2568418 -1.346495,-0.2568456 -0.306141,3.8e-6 -0.546123,0.054486 -0.719946,0.1634472 -0.171232,0.106374 -0.256847,0.2399856 -0.256845,0.400835 -2e-6,0.1556672 0.07524,0.2801983 0.225712,0.3735937 0.147879,0.093401 0.389158,0.2010688 0.723838,0.3230029 l 0.490342,0.1790137 c 0.448828,0.1634495 0.764047,0.3411658 0.945659,0.5331494 0.181604,0.1919874 0.272408,0.4319692 0.272412,0.7199463 -4e-6,0.3761889 -0.14529,0.6862195 -0.435859,0.93009271 C 13.027522,0 12.565719,0.12063952 11.930094,0.12063965 11.37489,0.12063952 10.804123,0.0038916 10.217789,-0.22960449"
               style="font-size:7.96999979px;font-variant:normal;font-weight:normal;writing-mode:lr-tb;fill:#000000;fill-opacity:1;fill-rule:nonzero;stroke:none;font-family:Courier;-inkscape-font-specification:Courier"
               id="path5125" /><path
               d="m 15.015355,1.7045214 0,-0.6771386 c 0.404726,0.1193413 0.745889,0.1790124 1.023491,0.1790137 0.241278,-1.3e-6 0.446235,-0.042809 0.614873,-0.1284229 0.168634,-0.0830218 0.299651,-0.22441653 0.393052,-0.42418455 0.09599,-0.19976933 0.143987,-0.54741872 0.143989,-1.0429492 l 0,-3.35456045 -1.844619,0 0,-0.6031982 2.568457,0 0,3.8215526 c -3e-6,0.73680967 -0.08692,1.24790615 -0.260737,1.533291 -0.173828,0.2879772 -0.383974,0.4942319 -0.630439,0.6187646 -0.246471,0.1245295 -0.583743,0.1867951 -1.011817,0.1867969 -0.308735,-1.8e-6 -0.640818,-0.036323 -0.99625,-0.1089649 m 2.054766,-7.6197556 c -3e-6,-0.1634412 0.05448,-0.2853779 0.163447,-0.3658106 0.111556,-0.08042 0.217927,-0.1206332 0.319111,-0.1206396 0.101179,6.4e-6 0.206252,0.04022 0.31522,0.1206396 0.111556,0.080433 0.167335,0.2023694 0.167339,0.3658106 -4e-6,0.1608586 -0.05578,0.2814981 -0.167339,0.3619189 -0.108968,0.080432 -0.214041,0.1206451 -0.31522,0.1206397 -0.101184,5.4e-6 -0.207555,-0.040208 -0.319111,-0.1206397 -0.108968,-0.080421 -0.16345,-0.2010603 -0.163447,-0.3619189"
               style="font-size:7.96999979px;font-variant:normal;font-weight:normal;writing-mode:lr-tb;fill:#000000;fill-opacity:1;fill-rule:nonzero;stroke:none;font-family:Courier;-inkscape-font-specification:Courier"
               id="path5127" /><path
               d="m 19.738982,-0.12842285 0,-0.73940428 c 0.622655,0.29576229 1.188234,0.443643 1.696738,0.44364257 0.212738,4.3e-7 0.416399,-0.0402128 0.610981,-0.12063964 0.194577,-0.0830202 0.341161,-0.20106533 0.439751,-0.35413574 0.101178,-0.15306856 0.151769,-0.31911006 0.151773,-0.49812496 -4e-6,-0.2101449 -0.06875,-0.406022 -0.206255,-0.5876318 -0.137507,-0.1842003 -0.395649,-0.3865634 -0.774429,-0.6070899 l -0.396943,-0.2296045 -0.400835,-0.2296044 c -0.705678,-0.4176951 -1.058516,-0.9365748 -1.058516,-1.5566406 0,-0.4540151 0.156961,-0.8353917 0.470884,-1.1441309 0.316516,-0.311322 0.809451,-0.4669859 1.478809,-0.4669921 0.430667,6.2e-6 0.847068,0.062272 1.249204,0.1867968 l 0,0.6732471 c -0.443646,-0.1712249 -0.875614,-0.2568401 -1.295904,-0.2568457 -0.33468,5.6e-6 -0.605794,0.088215 -0.813344,0.2646289 -0.20496,0.1764244 -0.307438,0.3891651 -0.307437,0.6382226 -1e-6,0.2464726 0.07913,0.4514301 0.237388,0.6148731 0.158257,0.1634512 0.36062,0.3139263 0.60709,0.4514257 l 0.303545,0.1829053 0.377485,0.2296045 0.319111,0.1867969 c 0.661569,0.4047292 0.992354,0.9132312 0.992359,1.5255077 -5e-6,0.4669933 -0.169938,0.86782781 -0.5098,1.20250488 -0.33987,0.33467771 -0.884694,0.50201641 -1.634473,0.50201659 -0.238687,-1.8e-7 -0.466994,-0.0207554 -0.684922,-0.0622656 -0.215336,-0.0389161 -0.499423,-0.12193685 -0.85226,-0.2490625"
               style="font-size:7.96999979px;font-variant:normal;font-weight:normal;writing-mode:lr-tb;fill:#000000;fill-opacity:1;fill-rule:nonzero;stroke:none;font-family:Courier;-inkscape-font-specification:Courier"
               id="path5129" /><path
               d="m 28.128496,-0.28797851 c -0.578555,0.27500652 -1.125973,0.41250963 -1.642256,0.41250976 -0.391757,-1.3e-7 -0.742,-0.09729007 -1.050732,-0.29187011 -0.308735,-0.19457971 -0.5565,-0.47218034 -0.743296,-0.83280274 -0.184203,-0.3632147 -0.276304,-0.7510773 -0.276304,-1.1635888 0,-0.3969408 0.08821,-0.7783174 0.264629,-1.1441308 0.176418,-0.3658069 0.422886,-0.6498935 0.739404,-0.8522608 0.316515,-0.2049533 0.669353,-0.307432 1.058516,-0.3074365 0.516283,4.5e-6 0.930089,0.1842068 1.241421,0.5526074 0.313918,0.3684085 0.470879,0.9365818 0.470883,1.7045215 l 0,0.155664 -2.996533,0 c -10e-7,0.3009523 0.06227,0.5759585 0.186797,0.8250195 0.127124,0.24906351 0.293166,0.4358602 0.498125,0.56039065 0.204956,0.12453179 0.438452,0.18679735 0.700488,0.18679687 0.466989,4.8e-7 0.983275,-0.15566342 1.548858,-0.46699218 l 0,0.66157225 m -2.89146,-2.30771969 2.167622,0 0,-0.1050732 c -4e-6,-0.3554299 -0.08692,-0.6382193 -0.260737,-0.8483691 -0.173828,-0.2101428 -0.406027,-0.3152159 -0.696597,-0.3152197 -0.29317,3.8e-6 -0.547421,0.1076713 -0.762754,0.3230029 -0.212742,0.2127442 -0.36192,0.5279636 -0.447534,0.9456591"
               style="font-size:7.96999979px;font-variant:normal;font-weight:normal;writing-mode:lr-tb;fill:#000000;fill-opacity:1;fill-rule:nonzero;stroke:none;font-family:Courier;-inkscape-font-specification:Courier"
               id="path5131" /><path
               d="m 32.929953,-0.17512207 c -0.33987,0.14269209 -0.586338,0.22701004 -0.739404,0.2529541 -0.153073,0.0285383 -0.300954,0.04280749 -0.443642,0.04280762 -0.303548,-1.3e-7 -0.581149,-0.05837409 -0.832803,-0.17512207 C 30.662445,-0.17123029 30.471757,-0.34375779 30.342038,-0.57206541 30.214911,-0.8003719 30.151349,-1.1532101 30.15135,-1.630581 l 0,-1.7512207 -1.085757,0 0,-0.6031982 1.085757,0 0,-1.7512207 0.723838,0 0,1.7512207 1.934126,0 0,0.6031982 -1.934126,0 0,1.7395459 c -2e-6,0.3502454 0.04151,0.5980105 0.124531,0.74329586 0.08302,0.14269281 0.19328,0.24776595 0.330786,0.31521972 0.140095,0.0674549 0.304839,0.10118212 0.494234,0.10118164 0.35024,4.8e-7 0.718645,-0.11026145 1.105214,-0.33078613 l 0,0.63822264"
               style="font-size:7.96999979px;font-variant:normal;font-weight:normal;writing-mode:lr-tb;fill:#000000;fill-opacity:1;fill-rule:nonzero;stroke:none;font-family:Courier;-inkscape-font-specification:Courier"
               id="path5133" /><path
               d="m 34.127788,-0.22960449 0,-0.76664548 c 0.290572,0.18939207 0.598008,0.32300359 0.92231,0.40083495 0.324298,0.0752382 0.599304,0.11285692 0.825019,0.11285644 0.365808,4.8e-7 0.629139,-0.0583735 0.789995,-0.17512207 0.16085,-0.11934166 0.241276,-0.26722237 0.24128,-0.44364255 -4e-6,-0.1167468 -0.03762,-0.2166312 -0.112857,-0.2996533 -0.07524,-0.083019 -0.262037,-0.1854981 -0.560391,-0.3074365 l -0.249062,-0.1011817 -0.502017,-0.1984717 c -0.539636,-0.2101442 -0.879503,-0.4047241 -1.019599,-0.5837402 -0.142693,-0.1764165 -0.214039,-0.3917515 -0.214038,-0.6460058 -10e-7,-0.3580238 0.137502,-0.652488 0.412509,-0.8833935 0.2776,-0.2308974 0.726431,-0.3463481 1.346495,-0.3463526 0.464394,4.5e-6 0.904145,0.067459 1.319252,0.2023633 l 0,0.6576806 c -0.477373,-0.1712266 -0.926204,-0.2568418 -1.346494,-0.2568456 -0.306141,3.8e-6 -0.546123,0.054486 -0.719946,0.1634472 -0.171232,0.106374 -0.256847,0.2399856 -0.256846,0.400835 -10e-7,0.1556672 0.07524,0.2801983 0.225713,0.3735937 0.147879,0.093401 0.389158,0.2010688 0.723838,0.3230029 l 0.490342,0.1790137 c 0.448828,0.1634495 0.764047,0.3411658 0.945659,0.5331494 0.181604,0.1919874 0.272408,0.4319692 0.272412,0.7199463 -4e-6,0.3761889 -0.14529,0.6862195 -0.435859,0.93009271 C 36.937521,0 36.475718,0.12063952 35.840093,0.12063965 35.284889,0.12063952 34.714121,0.0038916 34.127788,-0.22960449"
               style="font-size:7.96999979px;font-variant:normal;font-weight:normal;writing-mode:lr-tb;fill:#000000;fill-opacity:1;fill-rule:nonzero;stroke:none;font-family:Courier;-inkscape-font-specification:Courier"
               id="path5135" /></g></g><g
           id="g3502"
           transform="matrix(1.00028,0,0,1.00028,98.398658,750.6413)"
           clip-path="none"><path
             d="m 321.65,-9.49 0,8.96"
             style="fill:none;stroke:#000000;stroke-width:0.40000001;stroke-linecap:butt;stroke-linejoin:miter;stroke-miterlimit:10;stroke-opacity:1;stroke-dasharray:none"
             id="path3504"
             inkscape:connector-curvature="0" /></g><g
           id="g3506"
           transform="matrix(1.00028,0,0,1.00028,98.398658,750.6413)"
           clip-path="none"><text
             transform="matrix(1,0,0,-1,338.98,-6.8)"
             id="text3508"><tspan
               style="font-size:7.96999979px;font-variant:normal;font-weight:normal;writing-mode:lr-tb;fill:#000000;fill-opacity:1;fill-rule:nonzero;stroke:none;font-family:Times New Roman;-inkscape-font-specification:Times-Roman"
               x="0"
               y="0"
               id="tspan3510">4</tspan></text>
</g><g
           id="g3512"
           transform="matrix(1.00028,0,0,1.00028,98.398658,750.6413)"
           clip-path="none"><path
             d="m 360.3,-9.49 0,8.96"
             style="fill:none;stroke:#000000;stroke-width:0.40000001;stroke-linecap:butt;stroke-linejoin:miter;stroke-miterlimit:10;stroke-opacity:1;stroke-dasharray:none"
             id="path3514"
             inkscape:connector-curvature="0" /></g><g
           id="g3516"
           transform="matrix(1.00028,0,0,1.00028,98.398658,750.6413)"
           clip-path="none"><text
             transform="matrix(1,0,0,-1,369.88,-6.8)"
             id="text3518"><tspan
               style="font-size:7.96999979px;font-variant:normal;font-weight:normal;writing-mode:lr-tb;fill:#000000;fill-opacity:1;fill-rule:nonzero;stroke:none;font-family:Times New Roman;-inkscape-font-specification:Times-Roman"
               x="0 3.9849999"
               y="0"
               sodipodi:role="line"
               id="tspan3520">28</tspan></text>
</g><g
           id="g3522"
           transform="matrix(1.00028,0,0,1.00028,98.398658,750.6413)"
           clip-path="none"><path
             d="m 387.43,-9.49 0,8.96"
             style="fill:none;stroke:#000000;stroke-width:0.40000001;stroke-linecap:butt;stroke-linejoin:miter;stroke-miterlimit:10;stroke-opacity:1;stroke-dasharray:none"
             id="path3524"
             inkscape:connector-curvature="0" /></g><g
           id="g3526"
           transform="matrix(1.00028,0,0,1.00028,98.398658,750.6413)"
           clip-path="none"><text
             transform="matrix(1,0,0,-1,398.56,-6.8)"
             id="text3528"><tspan
               style="font-size:7.96999979px;font-variant:normal;font-weight:normal;writing-mode:lr-tb;fill:#000000;fill-opacity:1;fill-rule:nonzero;stroke:none;font-family:Times New Roman;-inkscape-font-specification:Times-Roman"
               x="0 3.9849999"
               y="0"
               sodipodi:role="line"
               id="tspan3530">29</tspan></text>
</g><g
           id="g3532"
           transform="matrix(1.00028,0,0,1.00028,98.398658,750.6413)"
           clip-path="none"><path
             d="m 417.67,-9.49 0,8.96"
             style="fill:none;stroke:#000000;stroke-width:0.40000001;stroke-linecap:butt;stroke-linejoin:miter;stroke-miterlimit:10;stroke-opacity:1;stroke-dasharray:none"
             id="path3534"
             inkscape:connector-curvature="0" /></g><g
           id="g3536"
           transform="matrix(1.00028,0,0,1.00028,98.398658,750.6413)"
           clip-path="none"><text
             transform="matrix(1,0,0,-1,432.79,-6.8)"
             id="text3538"><tspan
               style="font-size:7.96999979px;font-variant:normal;font-weight:normal;writing-mode:lr-tb;fill:#000000;fill-opacity:1;fill-rule:nonzero;stroke:none;font-family:Times New Roman;-inkscape-font-specification:Times-Roman"
               x="0 3.9849999"
               y="0"
               sodipodi:role="line"
               id="tspan3540">17</tspan></text>
</g><g
           id="g3542"
           transform="matrix(1.00028,0,0,1.00028,98.398658,750.6413)"
           clip-path="none"><path
             d="m 455.87,-9.49 0,8.96"
             style="fill:none;stroke:#000000;stroke-width:0.40000001;stroke-linecap:butt;stroke-linejoin:miter;stroke-miterlimit:10;stroke-opacity:1;stroke-dasharray:none"
             id="path3544"
             inkscape:connector-curvature="0" /></g><g
           id="g3546"
           transform="matrix(1.00028,0,0,1.00028,98.398658,750.6413)"
           clip-path="none"><path
             d="m 272.65,-18.46 0,8.97"
             style="fill:none;stroke:#000000;stroke-width:0.40000001;stroke-linecap:butt;stroke-linejoin:miter;stroke-miterlimit:10;stroke-opacity:1;stroke-dasharray:none"
             id="path3548"
             inkscape:connector-curvature="0" /></g><g
           id="g3550"
           transform="matrix(1.00028,0,0,1.00028,98.398658,749.0413)"
           clip-path="none"><g
             transform="matrix(1,0,0,-1,278.03,-15.77)"
             style=""
             id="text3552"><path
               d="m 0.61098143,-0.12842285 0,-0.73940428 c 0.62265497,0.29576229 1.18823387,0.443643 1.69673827,0.44364257 0.2127383,4.3e-7 0.4163986,-0.0402128 0.6109814,-0.12063964 0.194577,-0.0830202 0.3411605,-0.20106533 0.439751,-0.35413574 C 3.4596302,-1.0520285 3.510221,-1.21807 3.5102245,-1.3970849 3.510221,-1.6072298 3.4414694,-1.8031069 3.3039696,-1.9847167 3.1664632,-2.168917 2.9083206,-2.3712801 2.5295409,-2.5918066 L 2.1325976,-2.8214111 1.7317626,-3.0510155 c -0.705678,-0.4176951 -1.05851622,-0.9365748 -1.05851555,-1.5566406 -6.7e-7,-0.4540151 0.15696043,-0.8353917 0.47088375,-1.1441309 0.3165155,-0.311322 0.8094512,-0.4669859 1.4788086,-0.4669921 0.4306675,6.2e-6 0.8470684,0.062272 1.2492041,0.1867968 l 0,0.6732471 c -0.443646,-0.1712249 -0.8756134,-0.2568401 -1.2959033,-0.2568457 -0.33468,5.6e-6 -0.6057946,0.088215 -0.8133447,0.2646289 -0.2049593,0.1764244 -0.307438,0.3891651 -0.3074366,0.6382226 -1.4e-6,0.2464726 0.079128,0.4514301 0.2373877,0.6148731 0.1582566,0.1634512 0.3606197,0.3139263 0.6070899,0.4514257 l 0.3035449,0.1829053 0.3774853,0.2296045 0.3191113,0.1867969 c 0.6615683,0.4047292 0.9923541,0.9132312 0.9923584,1.5255077 -4.3e-6,0.4669933 -0.1699374,0.86782781 -0.5097998,1.20250488 C 3.4427666,0.01556639 2.897943,0.18290509 2.148164,0.18290527 1.9094772,0.18290509 1.6811701,0.1621499 1.4632421,0.12063965 1.2479056,0.08172355 0.963819,-0.0012972 0.61098143,-0.12842285"
               style="font-size:7.96999979px;font-variant:normal;font-weight:normal;writing-mode:lr-tb;fill:#000000;fill-opacity:1;fill-rule:nonzero;stroke:none;font-family:Courier;-inkscape-font-specification:Courier"
               id="path5153" /><path
               d="M 9.0199541,-0.17512207 C 8.6800836,-0.03242998 8.4336158,0.05188797 8.2805498,0.07783203 8.1274768,0.10637033 7.9795961,0.12063952 7.8369072,0.12063965 7.5333595,0.12063952 7.2557589,0.06226556 7.0041045,-0.05448242 6.7524456,-0.17123029 6.5617574,-0.34375779 6.4320391,-0.57206541 6.3049119,-0.8003719 6.2413492,-1.1532101 6.2413506,-1.630581 l 0,-1.7512207 -1.0857568,0 0,-0.6031982 1.0857568,0 0,-1.7512207 0.7238379,0 0,1.7512207 1.9341259,0 0,0.6031982 -1.9341259,0 0,1.7395459 c -2.2e-6,0.3502454 0.041508,0.5980105 0.1245312,0.74329586 0.083019,0.14269281 0.1932804,0.24776595 0.3307862,0.31521972 0.1400948,0.0674549 0.3048391,0.10118212 0.4942333,0.10118164 0.3502407,4.8e-7 0.7186453,-0.11026145 1.1052149,-0.33078613 l 0,0.63822264"
               style="font-size:7.96999979px;font-variant:normal;font-weight:normal;writing-mode:lr-tb;fill:#000000;fill-opacity:1;fill-rule:nonzero;stroke:none;font-family:Courier;-inkscape-font-specification:Courier"
               id="path5155" /><path
               d="m 13.023634,-0.97679197 c -0.220527,0.36321675 -0.486453,0.63692578 -0.797778,0.82112791 -0.308737,0.18420244 -0.592823,0.27630358 -0.852261,0.27630371 -0.363218,-1.3e-7 -0.690112,-0.15696123 -0.980684,-0.47088378 -0.287979,-0.31392186 -0.4319679,-0.78999397 -0.4319675,-1.42821777 -4e-7,-0.5033115 0.095992,-0.9521424 0.2879785,-1.3464941 0.191985,-0.3969398 0.44883,-0.7095648 0.770537,-0.9378759 0.321704,-0.2308974 0.719944,-0.3463481 1.194722,-0.3463526 0.1375,4.5e-6 0.345052,0.014274 0.622656,0.042808 0.04151,0.00519 0.103773,0.011679 0.186797,0.019458 l 0.727729,0 0,3.0704735 c -4e-6,0.52406977 0.05448,0.9495511 0.163448,1.2764453 L 13.15984,0 c -0.05708,-0.23868465 -0.102482,-0.56428165 -0.136206,-0.97679197 m 0,-0.86004393 0,-1.8640771 c -0.256849,-0.067451 -0.495534,-0.1011778 -0.716055,-0.1011816 -0.446239,3.8e-6 -0.818535,0.1725313 -1.116889,0.517583 -0.295764,0.3450582 -0.443644,0.8146443 -0.443643,1.4087597 -1e-6,0.430672 0.08042,0.756269 0.241279,0.97679196 0.163446,0.21793037 0.348945,0.3268951 0.556499,0.32689453 0.225711,5.7e-7 0.474773,-0.11415296 0.747188,-0.34246093 0.272409,-0.22830616 0.516282,-0.53574236 0.731621,-0.92230956"
               style="font-size:7.96999979px;font-variant:normal;font-weight:normal;writing-mode:lr-tb;fill:#000000;fill-opacity:1;fill-rule:nonzero;stroke:none;font-family:Courier;-inkscape-font-specification:Courier"
               id="path5157" /><path
               d="m 18.607303,-0.12453125 c -0.485156,0.16344723 -0.946959,0.24517077 -1.38541,0.2451709 -0.435862,-1.3e-7 -0.823724,-0.09988446 -1.163589,-0.29965332 -0.337273,-0.20236289 -0.600605,-0.47477472 -0.789995,-0.8172363 -0.189392,-0.34505403 -0.284087,-0.73680813 -0.284087,-1.17526363 0,-0.658975 0.214038,-1.2063931 0.642115,-1.6422558 0.430668,-0.4358551 0.949548,-0.6537846 1.55664,-0.6537891 0.448828,4.5e-6 0.923603,0.084322 1.424326,0.2529541 l 0,0.6965967 c -0.505912,-0.230898 -0.958634,-0.3463487 -1.358169,-0.3463525 -0.264631,3.8e-6 -0.513693,0.066161 -0.747187,0.1984716 -0.233498,0.1297236 -0.413809,0.3333839 -0.540933,0.6109815 -0.127127,0.2776036 -0.19069,0.5629875 -0.190688,0.8561523 -2e-6,0.3917563 0.121935,0.7653497 0.36581,1.1207812 0.246466,0.35543365 0.631735,0.53314994 1.155806,0.5331494 0.158255,5.4e-7 0.313919,-0.010377 0.466992,-0.0311328 0.153066,-0.023349 0.435856,-0.10507255 0.848369,-0.24517089 l 0,0.69659666"
               style="font-size:7.96999979px;font-variant:normal;font-weight:normal;writing-mode:lr-tb;fill:#000000;fill-opacity:1;fill-rule:nonzero;stroke:none;font-family:Courier;-inkscape-font-specification:Courier"
               id="path5159" /><path
               d="m 19.925779,0 0,-6.2810448 0.723837,0 0,3.9460839 2.08979,-2.0119579 0.965118,0 -2.085899,2.0119579 L 23.759006,0 l -0.99625,0 -2.11314,-2.3349609 0,2.3349609 -0.723837,0"
               style="font-size:7.96999979px;font-variant:normal;font-weight:normal;writing-mode:lr-tb;fill:#000000;fill-opacity:1;fill-rule:nonzero;stroke:none;font-family:Courier;-inkscape-font-specification:Courier"
               id="path5161" /><path
               d="m 24.793393,0 -0.75497,0 1.860185,-6.0397655 0.797778,0 L 28.568247,0 l -0.828911,0 -0.41251,-1.3270361 -2.124814,0 L 24.793393,0 m 0.595415,-1.9302343 1.762896,0 -0.72773,-2.2921533 -0.17123,-0.6070898 -0.151773,0.6070898 -0.712163,2.2921533"
               style="font-size:7.96999979px;font-variant:normal;font-weight:normal;writing-mode:lr-tb;fill:#000000;fill-opacity:1;fill-rule:nonzero;stroke:none;font-family:Courier;-inkscape-font-specification:Courier"
               id="path5163" /><path
               d="m 29.6649,0 0,-4.3469188 0.723838,0 0,0.9495507 c 0.225711,-0.3580236 0.483853,-0.6252466 0.774428,-0.8016699 0.293165,-0.1790093 0.618762,-0.268516 0.976792,-0.2685205 0.262031,4.5e-6 0.524065,0.040218 0.786104,0.1206397 l 0,1.5683154 -0.696597,0 0,-0.9923584 c -0.12194,-0.020751 -0.217933,-0.031129 -0.287978,-0.031133 -0.269821,3.8e-6 -0.53445,0.1063741 -0.793887,0.3191113 -0.259442,0.2127441 -0.512396,0.5318551 -0.758862,0.957334 L 30.388738,0 29.6649,0"
               style="font-size:7.96999979px;font-variant:normal;font-weight:normal;writing-mode:lr-tb;fill:#000000;fill-opacity:1;fill-rule:nonzero;stroke:none;font-family:Courier;-inkscape-font-specification:Courier"
               id="path5165" /></g></g><g
           id="g3556"
           transform="matrix(1.00028,0,0,1.00028,98.398658,750.6413)"
           clip-path="none"><path
             d="m 321.65,-18.46 0,8.97"
             style="fill:none;stroke:#000000;stroke-width:0.40000001;stroke-linecap:butt;stroke-linejoin:miter;stroke-miterlimit:10;stroke-opacity:1;stroke-dasharray:none"
             id="path3558"
             inkscape:connector-curvature="0" /></g><g
           id="g3560"
           transform="matrix(1.00028,0,0,1.00028,98.398658,750.6413)"
           clip-path="none"><text
             transform="matrix(1,0,0,-1,338.98,-15.77)"
             id="text3562"><tspan
               style="font-size:7.96999979px;font-variant:normal;font-weight:normal;writing-mode:lr-tb;fill:#000000;fill-opacity:1;fill-rule:nonzero;stroke:none;font-family:Times New Roman;-inkscape-font-specification:Times-Roman"
               x="0"
               y="0"
               id="tspan3564">8</tspan></text>
</g><g
           id="g3566"
           transform="matrix(1.00028,0,0,1.00028,98.398658,750.6413)"
           clip-path="none"><path
             d="m 360.3,-18.46 0,8.97"
             style="fill:none;stroke:#000000;stroke-width:0.40000001;stroke-linecap:butt;stroke-linejoin:miter;stroke-miterlimit:10;stroke-opacity:1;stroke-dasharray:none"
             id="path3568"
             inkscape:connector-curvature="0" /></g><g
           id="g3570"
           transform="matrix(1.00028,0,0,1.00028,98.398658,750.6413)"
           clip-path="none"><text
             transform="matrix(1,0,0,-1,369.88,-15.77)"
             id="text3572"><tspan
               style="font-size:7.96999979px;font-variant:normal;font-weight:normal;writing-mode:lr-tb;fill:#000000;fill-opacity:1;fill-rule:nonzero;stroke:none;font-family:Times New Roman;-inkscape-font-specification:Times-Roman"
               x="0 3.9849999"
               y="0"
               sodipodi:role="line"
               id="tspan3574">49</tspan></text>
</g><g
           id="g3576"
           transform="matrix(1.00028,0,0,1.00028,98.398658,750.6413)"
           clip-path="none"><path
             d="m 387.43,-18.46 0,8.97"
             style="fill:none;stroke:#000000;stroke-width:0.40000001;stroke-linecap:butt;stroke-linejoin:miter;stroke-miterlimit:10;stroke-opacity:1;stroke-dasharray:none"
             id="path3578"
             inkscape:connector-curvature="0" /></g><g
           id="g3580"
           transform="matrix(1.00028,0,0,1.00028,98.398658,750.6413)"
           clip-path="none"><text
             transform="matrix(1,0,0,-1,398.56,-15.77)"
             id="text3582"><tspan
               style="font-size:7.96999979px;font-variant:normal;font-weight:normal;writing-mode:lr-tb;fill:#000000;fill-opacity:1;fill-rule:nonzero;stroke:none;font-family:Times New Roman;-inkscape-font-specification:Times-Roman"
               x="0 3.9849999"
               y="0"
               sodipodi:role="line"
               id="tspan3584">79</tspan></text>
</g><g
           id="g3586"
           transform="matrix(1.00028,0,0,1.00028,98.398658,750.6413)"
           clip-path="none"><path
             d="m 417.67,-18.46 0,8.97"
             style="fill:none;stroke:#000000;stroke-width:0.40000001;stroke-linecap:butt;stroke-linejoin:miter;stroke-miterlimit:10;stroke-opacity:1;stroke-dasharray:none"
             id="path3588"
             inkscape:connector-curvature="0" /></g><g
           id="g3590"
           transform="matrix(1.00028,0,0,1.00028,98.398658,750.6413)"
           clip-path="none"><text
             transform="matrix(1,0,0,-1,432.79,-15.77)"
             id="text3592"><tspan
               style="font-size:7.96999979px;font-variant:normal;font-weight:normal;writing-mode:lr-tb;fill:#000000;fill-opacity:1;fill-rule:nonzero;stroke:none;font-family:Times New Roman;-inkscape-font-specification:Times-Roman"
               x="0 3.9849999"
               y="0"
               sodipodi:role="line"
               id="tspan3594">23</tspan></text>
</g><g
           id="g3596"
           transform="matrix(1.00028,0,0,1.00028,98.398658,750.6413)"
           clip-path="none"><path
             d="m 455.87,-18.46 0,8.97"
             style="fill:none;stroke:#000000;stroke-width:0.40000001;stroke-linecap:butt;stroke-linejoin:miter;stroke-miterlimit:10;stroke-opacity:1;stroke-dasharray:none"
             id="path3598"
             inkscape:connector-curvature="0" /></g><g
           id="g3600"
           transform="matrix(1.00028,0,0,1.00028,98.398658,750.6413)"
           clip-path="none"><path
             d="m 272.65,-27.42 0,8.96"
             style="fill:none;stroke:#000000;stroke-width:0.40000001;stroke-linecap:butt;stroke-linejoin:miter;stroke-miterlimit:10;stroke-opacity:1;stroke-dasharray:none"
             id="path3602"
             inkscape:connector-curvature="0" /></g><g
           id="g3604"
           transform="matrix(1.00028,0,0,1.00028,98.398658,750.6413)"
           clip-path="none"><g
             transform="matrix(1,0,0,-1,278.03,-24.73)"
             style=""
             id="text3606"><path
               d="m 2.9031347,0.11285644 c 0.181605,0.3009501 0.3437549,0.50979917 0.4864502,0.62654784 0.1426885,0.11674719 0.328188,0.20365953 0.556499,0.26073732 0.2283031,0.057076 0.4812569,0.085614 0.7588623,0.085615 l 0.070049,0 0,0.6031982 -0.1829053,0 C 4.0913662,1.6889533 3.7268533,1.6370654 3.4985497,1.533291 3.2702392,1.4295135 3.0549041,1.269958 2.8525439,1.054624 2.6501779,0.83928788 2.4659757,0.54612086 2.2999365,0.17512207 1.8251593,0.12323392 1.4489715,-0.02724118 1.171372,-0.2763037 0.89636464,-0.52536567 0.67843518,-0.91063383 0.51758299,-1.4321093 0.35672978,-1.953582 0.27630343,-2.513972 0.2763037,-3.1132812 c -2.7e-7,-0.8769035 0.17512162,-1.6137126 0.5253662,-2.2104296 0.350243,-0.5967063 0.8795002,-0.8950621 1.5877734,-0.8950683 0.6849188,6.2e-6 1.2076901,0.2879844 1.5683154,0.8639355 0.3632118,0.5759618 0.5448197,1.3555785 0.5448242,2.3388525 -4.5e-6,0.4669947 -0.048001,0.9145284 -0.1439893,1.3426025 -0.093403,0.425483 -0.2568498,0.80037355 -0.4903417,1.12467279 C 3.6373465,-0.22700986 3.3156411,-0.006486 2.9031347,0.11285644 M 2.3894433,-5.6155809 c -0.3787846,5.6e-6 -0.6953012,0.2153407 -0.9495508,0.6460058 -0.251658,0.4280807 -0.3774864,1.0779775 -0.3774853,1.9496924 -1.1e-6,0.8717208 0.1258273,1.5229148 0.3774853,1.9535839 0.2542496,0.4280768 0.5707662,0.64211467 0.9495508,0.64211424 0.3787798,4.3e-7 0.6939992,-0.21403744 0.9456592,-0.64211424 0.2542477,-0.4306691 0.3813732,-1.0818631 0.3813769,-1.9535839 -3.7e-6,-0.8717149 -0.1271292,-1.5216117 -0.3813769,-1.9496924 -0.25166,-0.4306651 -0.5668794,-0.6460002 -0.9456592,-0.6460058"
               style="font-size:7.96999979px;font-variant:normal;font-weight:normal;writing-mode:lr-tb;fill:#000000;fill-opacity:1;fill-rule:nonzero;stroke:none;font-family:Courier;-inkscape-font-specification:Courier"
               id="path5138" /><path
               d="M 8.96158,-4.3469188 8.96158,0 8.2377422,0 l 0,-0.95344236 C 8.0042429,-0.59541443 7.744803,-0.3268942 7.4594219,-0.14788086 7.1740354,0.03113278 6.8886515,0.12063952 6.6032695,0.12063965 6.3490167,0.12063952 6.1155208,0.05318517 5.9027813,-0.08172363 5.6926339,-0.21922666 5.5460504,-0.39824015 5.4630303,-0.61876463 5.3800089,-0.84188227 5.3384985,-1.2751468 5.3384991,-1.9185595 l 0,-2.4283593 0.7238378,0 0,2.5178661 c -1.2e-6,0.4177 0.019457,0.6940034 0.058374,0.8289111 0.041509,0.13231534 0.1154494,0.24128007 0.2218213,0.32689455 0.1089631,0.0856158 0.225711,0.12842339 0.3502441,0.12842285 0.2542491,5.4e-7 0.5266609,-0.11934179 0.8172363,-0.35802734 C 7.803177,-1.1441297 8.0457532,-1.4476743 8.2377422,-1.8134863 l 0,-2.5334325 0.7238378,0"
               style="font-size:7.96999979px;font-variant:normal;font-weight:normal;writing-mode:lr-tb;fill:#000000;fill-opacity:1;fill-rule:nonzero;stroke:none;font-family:Courier;-inkscape-font-specification:Courier"
               id="path5140" /><path
               d="m 13.782496,-0.28797851 c -0.578555,0.27500652 -1.125973,0.41250963 -1.642256,0.41250976 -0.391756,-1.3e-7 -0.742,-0.09729007 -1.050732,-0.29187011 -0.308735,-0.19457971 -0.5565,-0.47218034 -0.743296,-0.83280274 -0.184203,-0.3632147 -0.276304,-0.7510773 -0.276304,-1.1635888 0,-0.3969408 0.08821,-0.7783174 0.264629,-1.1441308 0.176419,-0.3658069 0.422886,-0.6498935 0.739404,-0.8522608 0.316516,-0.2049533 0.669354,-0.307432 1.058516,-0.3074365 0.516283,4.5e-6 0.930089,0.1842068 1.241421,0.5526074 0.313918,0.3684085 0.470879,0.9365818 0.470884,1.7045215 l 0,0.155664 -2.996533,0 c -2e-6,0.3009523 0.06226,0.5759585 0.186796,0.8250195 0.127125,0.24906351 0.293166,0.4358602 0.498125,0.56039065 0.204956,0.12453179 0.438452,0.18679735 0.700489,0.18679687 0.466989,4.8e-7 0.983274,-0.15566342 1.548857,-0.46699218 l 0,0.66157225 m -2.89146,-2.30771969 2.167622,0 0,-0.1050732 c -3e-6,-0.3554299 -0.08692,-0.6382193 -0.260737,-0.8483691 -0.173828,-0.2101428 -0.406027,-0.3152159 -0.696597,-0.3152197 -0.293169,3.8e-6 -0.54742,0.1076713 -0.762754,0.3230029 -0.212742,0.2127442 -0.36192,0.5279636 -0.447534,0.9456591"
               style="font-size:7.96999979px;font-variant:normal;font-weight:normal;writing-mode:lr-tb;fill:#000000;fill-opacity:1;fill-rule:nonzero;stroke:none;font-family:Courier;-inkscape-font-specification:Courier"
               id="path5142" /><path
               d="m 18.52558,-4.3469188 0,4.3469188 -0.723838,0 0,-0.95344236 c -0.233499,0.35802793 -0.492939,0.62654816 -0.77832,0.8055615 -0.285387,0.17901364 -0.570771,0.26852038 -0.856153,0.26852051 -0.254253,-1.3e-7 -0.487749,-0.06745448 -0.700488,-0.20236328 -0.210147,-0.13750303 -0.356731,-0.31651652 -0.439751,-0.537041 -0.08302,-0.22311764 -0.124532,-0.65638217 -0.124531,-1.29979487 l 0,-2.4283593 0.723838,0 0,2.5178661 c -2e-6,0.4177 0.01946,0.6940034 0.05837,0.8289111 0.04151,0.13231534 0.115449,0.24128007 0.221821,0.32689455 0.108963,0.0856158 0.225711,0.12842339 0.350244,0.12842285 0.254249,5.4e-7 0.526661,-0.11934179 0.817236,-0.35802734 0.293165,-0.24127816 0.535741,-0.54482276 0.72773,-0.91063476 l 0,-2.5334325 0.723838,0"
               style="font-size:7.96999979px;font-variant:normal;font-weight:normal;writing-mode:lr-tb;fill:#000000;fill-opacity:1;fill-rule:nonzero;stroke:none;font-family:Courier;-inkscape-font-specification:Courier"
               id="path5144" /><path
               d="m 23.346496,-0.28797851 c -0.578555,0.27500652 -1.125973,0.41250963 -1.642256,0.41250976 -0.391756,-1.3e-7 -0.742,-0.09729007 -1.050732,-0.29187011 -0.308735,-0.19457971 -0.5565,-0.47218034 -0.743296,-0.83280274 -0.184203,-0.3632147 -0.276304,-0.7510773 -0.276304,-1.1635888 0,-0.3969408 0.08821,-0.7783174 0.264629,-1.1441308 0.176419,-0.3658069 0.422887,-0.6498935 0.739405,-0.8522608 0.316515,-0.2049533 0.669353,-0.307432 1.058515,-0.3074365 0.516283,4.5e-6 0.930089,0.1842068 1.241421,0.5526074 0.313918,0.3684085 0.47088,0.9365818 0.470884,1.7045215 l 0,0.155664 -2.996533,0 c -2e-6,0.3009523 0.06226,0.5759585 0.186797,0.8250195 0.127124,0.24906351 0.293165,0.4358602 0.498125,0.56039065 0.204955,0.12453179 0.438451,0.18679735 0.700488,0.18679687 0.466989,4.8e-7 0.983274,-0.15566342 1.548857,-0.46699218 l 0,0.66157225 m -2.89146,-2.30771969 2.167622,0 0,-0.1050732 c -3e-6,-0.3554299 -0.08692,-0.6382193 -0.260737,-0.8483691 -0.173828,-0.2101428 -0.406027,-0.3152159 -0.696597,-0.3152197 -0.293169,3.8e-6 -0.54742,0.1076713 -0.762753,0.3230029 -0.212743,0.2127442 -0.361921,0.5279636 -0.447535,0.9456591"
               style="font-size:7.96999979px;font-variant:normal;font-weight:normal;writing-mode:lr-tb;fill:#000000;fill-opacity:1;fill-rule:nonzero;stroke:none;font-family:Courier;-inkscape-font-specification:Courier"
               id="path5146" /><path
               d="m 24.793393,0 -0.75497,0 1.860185,-6.0397655 0.797778,0 L 28.568247,0 l -0.828911,0 -0.41251,-1.3270361 -2.124814,0 L 24.793393,0 m 0.595415,-1.9302343 1.762896,0 -0.72773,-2.2921533 -0.17123,-0.6070898 -0.151773,0.6070898 -0.712163,2.2921533"
               style="font-size:7.96999979px;font-variant:normal;font-weight:normal;writing-mode:lr-tb;fill:#000000;fill-opacity:1;fill-rule:nonzero;stroke:none;font-family:Courier;-inkscape-font-specification:Courier"
               id="path5148" /><path
               d="m 29.6649,0 0,-4.3469188 0.723838,0 0,0.9495507 c 0.225711,-0.3580236 0.483853,-0.6252466 0.774428,-0.8016699 0.293165,-0.1790093 0.618762,-0.268516 0.976792,-0.2685205 0.262031,4.5e-6 0.524065,0.040218 0.786104,0.1206397 l 0,1.5683154 -0.696597,0 0,-0.9923584 c -0.12194,-0.020751 -0.217933,-0.031129 -0.287978,-0.031133 -0.269821,3.8e-6 -0.53445,0.1063741 -0.793887,0.3191113 -0.259442,0.2127441 -0.512396,0.5318551 -0.758862,0.957334 L 30.388738,0 29.6649,0"
               style="font-size:7.96999979px;font-variant:normal;font-weight:normal;writing-mode:lr-tb;fill:#000000;fill-opacity:1;fill-rule:nonzero;stroke:none;font-family:Courier;-inkscape-font-specification:Courier"
               id="path5150" /></g></g><g
           id="g3610"
           transform="matrix(1.00028,0,0,1.00028,98.398658,750.6413)"
           clip-path="none"><path
             d="m 321.65,-27.42 0,8.96"
             style="fill:none;stroke:#000000;stroke-width:0.40000001;stroke-linecap:butt;stroke-linejoin:miter;stroke-miterlimit:10;stroke-opacity:1;stroke-dasharray:none"
             id="path3612"
             inkscape:connector-curvature="0" /></g><g
           id="g3614"
           transform="matrix(1.00028,0,0,1.00028,98.398658,750.6413)"
           clip-path="none"><text
             transform="matrix(1,0,0,-1,338.98,-24.73)"
             id="text3616"><tspan
               style="font-size:7.96999979px;font-variant:normal;font-weight:normal;writing-mode:lr-tb;fill:#000000;fill-opacity:1;fill-rule:nonzero;stroke:none;font-family:Times New Roman;-inkscape-font-specification:Times-Roman"
               x="0"
               y="0"
               id="tspan3618">7</tspan></text>
</g><g
           id="g3620"
           transform="matrix(1.00028,0,0,1.00028,98.398658,750.6413)"
           clip-path="none"><path
             d="m 360.3,-27.42 0,8.96"
             style="fill:none;stroke:#000000;stroke-width:0.40000001;stroke-linecap:butt;stroke-linejoin:miter;stroke-miterlimit:10;stroke-opacity:1;stroke-dasharray:none"
             id="path3622"
             inkscape:connector-curvature="0" /></g><g
           id="g3624"
           transform="matrix(1.00028,0,0,1.00028,98.398658,750.6413)"
           clip-path="none"><text
             transform="matrix(1,0,0,-1,369.88,-24.73)"
             id="text3626"><tspan
               style="font-size:7.96999979px;font-variant:normal;font-weight:normal;writing-mode:lr-tb;fill:#000000;fill-opacity:1;fill-rule:nonzero;stroke:none;font-family:Times New Roman;-inkscape-font-specification:Times-Roman"
               x="0 3.9849999"
               y="0"
               sodipodi:role="line"
               id="tspan3628">55</tspan></text>
</g><g
           id="g3630"
           transform="matrix(1.00028,0,0,1.00028,98.398658,750.6413)"
           clip-path="none"><path
             d="m 387.43,-27.42 0,8.96"
             style="fill:none;stroke:#000000;stroke-width:0.40000001;stroke-linecap:butt;stroke-linejoin:miter;stroke-miterlimit:10;stroke-opacity:1;stroke-dasharray:none"
             id="path3632"
             inkscape:connector-curvature="0" /></g><g
           id="g3634"
           transform="matrix(1.00028,0,0,1.00028,98.398658,750.6413)"
           clip-path="none"><text
             transform="matrix(1,0,0,-1,398.56,-24.73)"
             id="text3636"><tspan
               style="font-size:7.96999979px;font-variant:normal;font-weight:normal;writing-mode:lr-tb;fill:#000000;fill-opacity:1;fill-rule:nonzero;stroke:none;font-family:Times New Roman;-inkscape-font-specification:Times-Roman"
               x="0 3.9849999"
               y="0"
               sodipodi:role="line"
               id="tspan3638">70</tspan></text>
</g><g
           id="g3640"
           transform="matrix(1.00028,0,0,1.00028,98.398658,750.6413)"
           clip-path="none"><path
             d="m 417.67,-27.42 0,8.96"
             style="fill:none;stroke:#000000;stroke-width:0.40000001;stroke-linecap:butt;stroke-linejoin:miter;stroke-miterlimit:10;stroke-opacity:1;stroke-dasharray:none"
             id="path3642"
             inkscape:connector-curvature="0" /></g><g
           id="g3644"
           transform="matrix(1.00028,0,0,1.00028,98.398658,750.6413)"
           clip-path="none"><text
             transform="matrix(1,0,0,-1,432.79,-24.73)"
             id="text3646"><tspan
               style="font-size:7.96999979px;font-variant:normal;font-weight:normal;writing-mode:lr-tb;fill:#000000;fill-opacity:1;fill-rule:nonzero;stroke:none;font-family:Times New Roman;-inkscape-font-specification:Times-Roman"
               x="0 3.9849999"
               y="0"
               sodipodi:role="line"
               id="tspan3648">32</tspan></text>
</g><g
           id="g3650"
           transform="matrix(1.00028,0,0,1.00028,98.398658,750.6413)"
           clip-path="none"><path
             d="m 455.87,-27.42 0,8.96"
             style="fill:none;stroke:#000000;stroke-width:0.40000001;stroke-linecap:butt;stroke-linejoin:miter;stroke-miterlimit:10;stroke-opacity:1;stroke-dasharray:none"
             id="path3652"
             inkscape:connector-curvature="0" /></g><g
           id="g3654"
           transform="matrix(1.00028,0,0,1.00028,98.398658,750.6413)"
           clip-path="none"><path
             d="m 272.65,-27.62 183.22,0"
             style="fill:none;stroke:#000000;stroke-width:0.40000001;stroke-linecap:butt;stroke-linejoin:miter;stroke-miterlimit:10;stroke-opacity:1;stroke-dasharray:none"
             id="path3656"
             inkscape:connector-curvature="0" /></g><g
           id="g3658"
           transform="matrix(1.00028,0,0,1.00028,98.398658,750.6413)"
           clip-path="none"><text
             transform="matrix(1,0,0,-1,244.74,-44.09)"
             id="text3660"><tspan
               style="font-size:8.96000004px;font-variant:normal;font-weight:normal;writing-mode:lr-tb;fill:#000000;fill-opacity:1;fill-rule:nonzero;stroke:none;font-family:Times New Roman;-inkscape-font-specification:Times-Roman"
               x="0 4.98176 7.47264 11.95264 16.43264 19.416321 25.77792 30.257919"
               y="0"
               sodipodi:role="line"
               id="tspan3662">Figure2:</tspan></text>
</g><g
           id="g3664"
           transform="matrix(1.00028,0,0,1.00028,98.398658,750.6413)"
           clip-path="none"><text
             transform="matrix(1,0,0,-1,280.58,-44.09)"
             id="text3666"><tspan
               style="font-size:7.96999979px;font-variant:normal;font-weight:normal;writing-mode:lr-tb;fill:#000000;fill-opacity:1;fill-rule:nonzero;stroke:none;font-family:Times New Roman;-inkscape-font-specification:Times-Roman"
               x="0 5.31599 9.3009901 12.83967 15.49368 19.03236 22.571039 24.786699 28.32538 30.979389 33.195049 36.29538 38.51104 40.7267 44.265381 49.47776 53.462761 58.244759 62.229759 64.883774 68.868767 72.853767 75.507782 79.046463 85.247124 90.467468 94.452469 97.552803 101.09148 107.1965 109.41216 115.51718 117.73284 121.71784 127.37654 130.47687 132.69254 136.67754 140.66254 144.13745 148.98322 152.5219 159.60722 163.1459 165.36156 169.34656 173.33156 177.31656 180.41689 186.07559 188.29124 193.5116 195.72726 199.71227"
               y="0"
               sodipodi:role="line"
               id="tspan3668">Characteristicsofprogramsusedinthestudy.Methodsisthe</tspan></text>
</g><g
           id="g3670"
           transform="matrix(1.00028,0,0,1.00028,98.398658,750.6413)"
           clip-path="none"><text
             transform="matrix(1,0,0,-1,244.74,-54.55)"
             id="text3672"><tspan
               style="font-size:7.96999979px;font-variant:normal;font-weight:normal;writing-mode:lr-tb;fill:#000000;fill-opacity:1;fill-rule:nonzero;stroke:none;font-family:Times New Roman;-inkscape-font-specification:Times-Roman"
               x="0 3.9849999 7.9699998 14.17066 18.155661 21.69434 26.587919 30.57292 35.474468 41.675129 45.21381 47.42947 51.414471 55.399471 59.384472 64.724373 66.940033 73.164597 75.380257 79.365257 85.151482 90.905823 96.660156 101.52983 106.74221 110.28089 116.03523 121.35122 127.10556 134.66112 139.53079 145.28513 150.60112 156.37936 158.59503 163.9429 166.15855 170.14355 175.92181 179.90681 183.89182 187.87682 190.53082 194.0695 198.0545 204.25516 210.45583 213.99451 217.97951 220.19516 224.491 228.47598 232.46098 236.44598"
               y="0"
               sodipodi:role="line"
               id="tspan3674">numberofmethodsintheADT.NCNBLOCisthenon-comment,non-</tspan></text>
</g><g
           id="g3676"
           transform="matrix(1.00028,0,0,1.00028,98.398658,750.6413)"
           clip-path="none"><text
             transform="matrix(1,0,0,-1,244.74,-65.01)"
             id="text3678"><tspan
               style="font-size:7.96999979px;font-variant:normal;font-weight:normal;writing-mode:lr-tb;fill:#000000;fill-opacity:1;fill-rule:nonzero;stroke:none;font-family:Times New Roman;-inkscape-font-specification:Times-Roman"
               x="0 3.9849999 6.2006602 9.7393398 13.72434 19.717779 21.933439 24.149099 28.1341 31.672779 36.773579 40.758579 45.421028 48.959709 52.94471 56.92971 62.47683 64.69249 70.685928 74.224609 76.440269 78.65593 82.64093 86.179611 90.834091 93.049751 97.034752 102.58187 108.33621 114.09055 120.96866 124.95366 129.60814 131.82381 135.80881 141.35593 144.89461 147.11026 149.32591 152.86459 156.84959 159.06526 163.56831 167.10699 174.19232 176.40797 180.39297 182.60864 188.8093 192.34798 196.57208 202.32642 206.31142 210.29642 214.28142 216.49709 222.0442 224.25986 229.36066 231.57632 235.56133"
               y="0"
               sodipodi:role="line"
               id="tspan3680">blanklinesofcodeineithertheADTortheclient.MinimalAnnotisthe</tspan></text>
</g><g
           id="g3682"
           transform="matrix(1.00028,0,0,1.00028,98.398658,750.6413)"
           clip-path="none"><text
             transform="matrix(1,0,0,-1,244.74,-75.46)"
             id="text3684"><tspan
               style="font-size:7.96999979px;font-variant:normal;font-weight:normal;writing-mode:lr-tb;fill:#000000;fill-opacity:1;fill-rule:nonzero;stroke:none;font-family:Times New Roman;-inkscape-font-specification:Times-Roman"
               x="0 6.2006602 8.4163198 12.40132 14.61698 20.81764 24.356319 28.56448 32.54948 36.534481 42.735142 46.720139 50.25882 54.905331 58.890331 63.536839 67.075523 71.060516 75.045517 79.030518 81.246178 84.784859 87.000519 89.216179 93.20118 97.18618 102.27901 106.26401 109.80269 113.34137 116.88005 119.98038 123.08071 126.61939 129.27341 135.2509 137.46655 143.44406 146.98274 150.96774 157.1684 161.1534 163.36906 166.90775 169.1234 174.65459 176.87024 180.85524 186.38641 188.60208 192.14076 195.24109 199.22609"
               y="0"
               sodipodi:role="line"
               id="tspan3686">minimalnumberofannotationsnecessarytocompletethetask.</tspan></text>
</g></g></g></g></svg>